<svg id="Layer_1" data-name="Layer 1" xmlns="http://www.w3.org/2000/svg" viewBox="0 0 244.4 59.5"><defs><style>.cls-1,.cls-3,.cls-4,.cls-5,.cls-6{fill:gray;}.cls-1,.cls-4,.cls-5,.cls-6{stroke:gray;stroke-miterlimit:10;}.cls-1{stroke-width:0.34px;}.cls-2{font-size:47.09px;fill:#333;font-family:CenturyGothic, Century Gothic;}.cls-4{stroke-width:0.15px;}.cls-5{stroke-width:0.14px;}.cls-6{stroke-width:0.16px;}</style></defs><title>boomMapLogo2</title><path class="cls-1" d="M48.88,32.64c-.29-.47-1-.15-1.69-.65a2.43,2.43,0,0,1-.69-1.79,38.37,38.37,0,0,0-.82-4.36A77.2,77.2,0,0,0,34.3,23.57,79.38,79.38,0,0,0,23.55,23c-.68,1.24-1.2,2.24-1.52,2.85-1,1.93-1.25,2.54-1.91,2.73-.87.24-1.43-.54-2.15-.24s-.91,1.28-1,2.15l1.86,1.4L17.79,46.17l5.35.82c.19-.86.39-1.71.58-2.56l15.92,1.8c-.42,1.12-.85,2.25-1.28,3.37l7.09.35.06-.76-.76.12c.12-.39.31-1,.58-1.63.74-1.85,1-1.81,1.11-2.5.26-1.62-1.11-2.1-.88-3.83.09-.61.24-.39.88-2.09s.43-1.74.93-2.79c.36-.77.57-1,1.1-2.15S49,32.85,48.88,32.64ZM25.5,37A2.15,2.15,0,1,1,24,34.39,2.16,2.16,0,0,1,25.5,37ZM44.21,39.3a2.15,2.15,0,1,1-1.5-2.64A2.15,2.15,0,0,1,44.21,39.3Zm-1.38-5.74c-.68-.3-.88-.67-1.39-.92a3.22,3.22,0,0,0-2.38,0,38.47,38.47,0,0,1-6-.3c-4.52-.35-8.94-1-10.75-1.22L25,25.66A45.5,45.5,0,0,1,35.57,26,44.46,44.46,0,0,1,43,27.7a17.76,17.76,0,0,1,1.28,6.15A3.6,3.6,0,0,1,42.83,33.56Z" transform="translate(-5.58 -4.89)"/><text class="cls-2" transform="translate(38.71 45.06) scale(0.84 1)">boomMap</text><path class="cls-3" d="M15.61,28.18l-10-4.81,10.53-1.08L9.88,14.37,20.17,17.7q0-6.4-.07-12.81l6.84,10.94,4-4.82,1.52,5.77,5.52-3.16L34,22V18l-2.84,1.72L30,15.64l-3.15,3.6-4.53-7.36-.29,8.54-6.48-2.18,4.18,5.59-7.55.78Z" transform="translate(-5.58 -4.89)"/><path class="cls-4" d="M14.76,29.67l.83.37-.51,2.15-1.56-1.47Z" transform="translate(-5.58 -4.89)"/><path class="cls-4" d="M13.2,32.19l-1.28,2.16h2.29l.28-.74Z" transform="translate(-5.58 -4.89)"/><path class="cls-4" d="M11.42,31.07a.66.66,0,0,0,.55.46l.46-1-.64-.23A.66.66,0,0,0,11.42,31.07Z" transform="translate(-5.58 -4.89)"/><path class="cls-5" d="M39.38,21.81l2.19-1.23-.39-1a3.21,3.21,0,0,0-1.23.94A2.93,2.93,0,0,0,39.38,21.81Z" transform="translate(-5.58 -4.89)"/><path class="cls-6" d="M41.08,22.5a.67.67,0,0,0,.58.48l.48-1-.67-.24A.65.65,0,0,0,41.08,22.5Z" transform="translate(-5.58 -4.89)"/></svg>