<svg xmlns="http://www.w3.org/2000/svg" viewBox="0 0 270 25"><defs><style>.a{fill:#c7dee0;}.b{font-size:12px;font-family:CenturyGothic, Century Gothic;}.c{opacity:0.9;}.d,.g{fill:#9d1e2d;}.d,.e,.f,.g,.h,.i{stroke:#000;stroke-miterlimit:10;}.d{stroke-width:0.39px;}.e,.f{stroke-width:0.45px;}.f,.i{fill:#fff;}.g{stroke-width:0.42px;}.h,.i{stroke-width:0.48px;}</style></defs><title>BorderBanner</title><rect class="a" width="270" height="25"/><text class="b" transform="translate(49.45 17.31)">STANJE NA MEJNIH PREHODIH</text><g class="c"><circle class="d" cx="237.47" cy="7.81" r="2.93"/><path d="M237.47,11.46a3.31,3.31,0,0,0,2.22-.85v7.33h-4.44V10.61A3.29,3.29,0,0,0,237.47,11.46Z"/><rect x="233.99" y="18.25" width="7.03" height="2.97" rx="0.29" transform="translate(475.02 39.48) rotate(-180)"/><path class="e" d="M257.3,5.88q1.08,1.92,2.15,3.86H262l-2.15-3.86Z"/><path class="f" d="M259.84,5.88,262,9.74h1.39a1,1,0,0,0,1-1V6.9a1,1,0,0,0-1-1Z"/><path class="e" d="M250.65,5.88l2.16,3.86h2.57c-.72-1.29-1.43-2.58-2.15-3.86Z"/><path class="f" d="M257.3,5.88h-4.07c.72,1.28,1.43,2.57,2.15,3.86h4.07Q258.39,7.8,257.3,5.88Z"/><path class="e" d="M244,5.88l2.15,3.86h2.5L246.5,5.88Z"/><path class="f" d="M250.65,5.88H246.5l2.16,3.86h4.15Z"/><path class="f" d="M241.42,7.81a3.31,3.31,0,0,1-.62,1.93h5.36L244,5.88H240.8A3.29,3.29,0,0,1,241.42,7.81Z"/></g><g class="c"><circle class="g" cx="33.32" cy="6.9" r="3.12"/><path d="M33.32,10.8A3.51,3.51,0,0,1,31,9.89v7.83h4.74V9.89A3.5,3.5,0,0,1,33.32,10.8Z"/><rect x="29.52" y="18.05" width="7.51" height="3.17" rx="0.31"/><path class="h" d="M12.15,4.84C11.38,6.21,10.62,7.59,9.86,9H7.15L9.44,4.84Z"/><path class="i" d="M9.44,4.84,7.15,9H5.66A1.09,1.09,0,0,1,4.57,7.87V5.93A1.09,1.09,0,0,1,5.66,4.84Z"/><path class="h" d="M19.25,4.84,17,9H14.2l2.3-4.12Z"/><path class="i" d="M12.15,4.84H16.5L14.2,9H9.86C10.62,7.59,11.38,6.21,12.15,4.84Z"/><path class="h" d="M26.35,4.84,24.05,9H21.38l2.3-4.12Z"/><path class="i" d="M19.25,4.84h4.43L21.38,9H17Z"/><path class="i" d="M29.11,6.9A3.49,3.49,0,0,0,29.77,9H24.05l2.3-4.12h3.42A3.49,3.49,0,0,0,29.11,6.9Z"/></g></svg>