<svg xmlns="http://www.w3.org/2000/svg" viewBox="0 0 270 25"><defs><style>.a{fill:#acd1d4;}.b{font-size:13px;font-family:Corbel;}.c{letter-spacing:-0.05em;}.d{font-family:Corbel-Bold, Corbel;font-weight:700;}.e{opacity:0.9;}.f{fill:#9d1e2d;stroke-width:0.41px;}.f,.g,.h{stroke:#000;stroke-miterlimit:10;}.g,.h{stroke-width:0.47px;}.h{fill:#fff;}</style></defs><title>BorderIcon</title><rect class="a" width="270" height="25"/><text class="b" transform="translate(46.35 17.31)">S<tspan class="c" x="7.17" y="0">T</tspan><tspan x="13.69" y="0">ANJE NA </tspan><tspan class="d" x="65.55" y="0">MEJNIH PREHODIH</tspan></text><g class="e"><circle class="f" cx="237.01" cy="7.6" r="3.04"/><path d="M237,11.4a3.46,3.46,0,0,0,2.31-.89v7.62H234.7V10.51A3.46,3.46,0,0,0,237,11.4Z"/><rect x="233.4" y="18.46" width="7.31" height="3.08" rx="0.3" transform="translate(474.11 40) rotate(-180)"/><path class="g" d="M257.62,5.6q1.13,2,2.23,4h2.64l-2.23-4Z"/><path class="h" d="M260.26,5.6l2.23,4h1.44A1.06,1.06,0,0,0,265,8.55V6.66a1.06,1.06,0,0,0-1.07-1.06Z"/><path class="g" d="M250.71,5.6l2.24,4h2.67l-2.23-4Z"/><path class="h" d="M257.62,5.6h-4.23l2.23,4h4.23Q258.74,7.6,257.62,5.6Z"/><path class="g" d="M243.8,5.6l2.24,4h2.59l-2.23-4Z"/><path class="h" d="M250.71,5.6H246.4l2.23,4H253Z"/><path class="h" d="M241.11,7.6a3.48,3.48,0,0,1-.64,2H246l-2.24-4h-3.33A3.43,3.43,0,0,1,241.11,7.6Z"/></g><g class="e"><circle class="f" cx="32.99" cy="7.05" r="3.04"/><path d="M33,10.85A3.46,3.46,0,0,1,30.68,10v7.62H35.3V10A3.46,3.46,0,0,1,33,10.85Z"/><rect x="29.29" y="17.91" width="7.31" height="3.08" rx="0.3"/><path class="g" d="M12.38,5q-1.12,2-2.23,4H7.51Q8.64,7,9.74,5Z"/><path class="h" d="M9.74,5q-1.11,2-2.23,4H6.07A1.06,1.06,0,0,1,5,8V6.1A1.06,1.06,0,0,1,6.07,5Z"/><path class="g" d="M19.29,5q-1.11,2-2.24,4H14.38q1.13-2,2.23-4Z"/><path class="h" d="M12.38,5h4.23q-1.11,2-2.23,4H10.15Q11.26,7,12.38,5Z"/><path class="g" d="M26.2,5,24,9.06H21.37L23.6,5Z"/><path class="h" d="M19.29,5H23.6l-2.23,4H17.05Q18.18,7,19.29,5Z"/><path class="h" d="M28.89,7.05a3.48,3.48,0,0,0,.64,2H24L26.2,5h3.33A3.48,3.48,0,0,0,28.89,7.05Z"/></g></svg>