<svg xmlns="http://www.w3.org/2000/svg" viewBox="0 0 270 25"><defs><style>.a{fill:#acd1d4;}.b{opacity:0.9;}.c{fill:#9d1e2d;stroke-width:0.41px;}.c,.d,.e{stroke:#000;stroke-miterlimit:10;}.d,.e{stroke-width:0.47px;}.e{fill:#fff;}</style></defs><title>BorderIcon</title><rect class="a" width="270" height="25"/><path d="M44.08,14.88a2.34,2.34,0,0,0,2.57,1.93C48.32,16.81,49,16,49,15s-.45-1.67-2.45-2.16-2.76-1.1-2.76-2.42.87-2.31,2.82-2.31a2.68,2.68,0,0,1,3,2.33H48.8a2,2,0,0,0-2.28-1.68c-1.31,0-2,.61-2,1.62s.59,1.39,2.27,1.81c2.56.64,2.94,1.66,2.94,2.76,0,1.34-1,2.49-3.08,2.49-2.28,0-3.11-1.32-3.28-2.55Z"/><path d="M53.5,8.88h-3V8.23h6.84v.65H54.22v8.45H53.5Z"/><path d="M58.55,14.18l-1.16,3.15h-.71L60,8.23h.83l3.48,9.1h-.76l-1.19-3.15Zm3.6-.65c-1-2.7-1.53-4-1.72-4.61h0c-.22.69-.81,2.3-1.63,4.61Z"/><path d="M65.94,17.33V8.23h1c1.42,2.18,4.75,7.27,5.32,8.25h0c-.07-1.31-.06-2.65-.06-4.13V8.23H73v9.1H72c-1.35-2.11-4.73-7.4-5.38-8.4h0c.06,1.2,0,2.52,0,4.17v4.23Z"/><path d="M77.31,14.84c0,2-.9,2.62-2.11,2.62a3.51,3.51,0,0,1-.78-.08v-.64a4.35,4.35,0,0,0,.81.07c1.22,0,1.37-.95,1.37-2V8.23h.71Z"/><path d="M85.15,12.86H80.5v3.82h5.09l-.11.65H79.8V8.23h5.58v.65H80.5v3.33h4.65Z"/><path d="M90.76,17.33V8.23h1c1.42,2.18,4.75,7.27,5.32,8.25h0c-.08-1.31-.06-2.65-.06-4.13V8.23h.71v9.1h-1c-1.35-2.11-4.73-7.4-5.38-8.4h0c.07,1.2.06,2.52.06,4.17v4.23Z"/><path d="M101.3,14.18l-1.15,3.15h-.72l3.34-9.1h.84l3.48,9.1h-.77l-1.18-3.15Zm3.61-.65c-1-2.7-1.54-4-1.72-4.61h0c-.22.69-.81,2.3-1.63,4.61Z"/><path d="M119.73,13.47c0-1.68,0-3.38.06-4.33h-.05c-.39,1.46-1.85,5.34-2.89,8.19h-1.08c-.78-2.32-2.29-6.67-2.7-8.21h0c.07,1,.1,3.05.1,4.6v3.61H112v-9h1.79c1,2.81,2.28,6.43,2.59,7.58h0c.22-.87,1.7-4.84,2.76-7.58h1.74v9h-1.17Z"/><path d="M129,13.1h-4.5v3.2h4.94l-.16,1h-6v-9h5.89v1h-4.71v2.76H129Z"/><path d="M133.92,14.69c0,2-.81,2.77-2.32,2.77a5.14,5.14,0,0,1-1-.09v-1a6.08,6.08,0,0,0,.84.06c1.09,0,1.24-.81,1.24-1.7V8.28h1.2Z"/><path d="M136.24,17.33v-9h1.59c1.3,2.12,4.12,6.62,4.63,7.6h0c-.09-1.16-.08-2.59-.08-4.07V8.28h1.13v9H142c-1.2-2-4.14-6.81-4.71-7.82h0c.06,1,.06,2.56.06,4.2v3.62Z"/><path d="M147.19,8.28v9H146v-9Z"/><path d="M149.65,8.28h1.2v3.78h4.71V8.28h1.2v9h-1.2V13.09h-4.71v4.24h-1.2Z"/><path d="M162.42,8.28h3.44c1.76,0,3,1,3,2.64s-1.27,2.69-3,2.69h-2.16v3.72h-1.21Zm1.21,4.32h2.1c1.24,0,1.86-.6,1.86-1.65a1.61,1.61,0,0,0-1.82-1.66h-2.14Z"/><path d="M171.71,13.34v4h-1.19v-9h3.54c1.86,0,2.85,1,2.85,2.42a2.07,2.07,0,0,1-1.54,2.13c.73.2,1.38.75,1.38,2.32v.39a6.45,6.45,0,0,0,.12,1.79H175.7a6.39,6.39,0,0,1-.15-1.95v-.19c0-1.29-.36-1.85-2-1.85Zm0-1h2c1.38,0,2-.52,2-1.54s-.63-1.51-1.85-1.51h-2.11Z"/><path d="M184.61,13.1h-4.5v3.2h4.94l-.15,1h-6v-9h5.89v1h-4.72v2.76h4.5Z"/><path d="M186.68,8.28h1.2v3.78h4.72V8.28h1.19v9H192.6V13.09h-4.72v4.24h-1.2Z"/><path d="M204.06,12.75c0,2.49-1.39,4.71-4.24,4.71-2.67,0-4.15-2.06-4.15-4.65s1.51-4.66,4.25-4.66C202.47,8.15,204.06,10.07,204.06,12.75Zm-7.14,0c0,2,1,3.67,3,3.67s2.93-1.74,2.93-3.67-.94-3.59-2.93-3.59S196.92,10.84,196.92,12.77Z"/><path d="M205.94,8.28h3.23a4.1,4.1,0,0,1,4.26,4.43c0,2.68-1.68,4.62-4.3,4.62h-3.19Zm1.19,8H209c2.13,0,3.14-1.52,3.14-3.57,0-1.79-.92-3.44-3.13-3.44h-1.91Z"/><path d="M216.51,8.28v9h-1.2v-9Z"/><path d="M219,8.28h1.2v3.78h4.72V8.28h1.19v9h-1.19V13.09h-4.72v4.24H219Z"/><g class="b"><circle class="c" cx="237.01" cy="7.6" r="3.04"/><path d="M237,11.4a3.46,3.46,0,0,0,2.31-.89v7.62H234.7V10.51A3.46,3.46,0,0,0,237,11.4Z"/><rect x="233.4" y="18.46" width="7.31" height="3.08" rx="0.3" transform="translate(474.11 40) rotate(-180)"/><path class="d" d="M257.62,5.6q1.13,2,2.23,4h2.64l-2.23-4Z"/><path class="e" d="M260.26,5.6l2.23,4h1.44A1.06,1.06,0,0,0,265,8.55V6.66a1.06,1.06,0,0,0-1.07-1.06Z"/><path class="d" d="M250.71,5.6l2.24,4h2.67l-2.23-4Z"/><path class="e" d="M257.62,5.6h-4.23l2.23,4h4.23Q258.74,7.6,257.62,5.6Z"/><path class="d" d="M243.8,5.6l2.24,4h2.59l-2.23-4Z"/><path class="e" d="M250.71,5.6H246.4l2.23,4H253Z"/><path class="e" d="M241.11,7.6a3.48,3.48,0,0,1-.64,2H246l-2.24-4h-3.33A3.43,3.43,0,0,1,241.11,7.6Z"/></g><g class="b"><circle class="c" cx="32.99" cy="7.05" r="3.04"/><path d="M33,10.85A3.46,3.46,0,0,1,30.68,10v7.62H35.3V10A3.46,3.46,0,0,1,33,10.85Z"/><rect x="29.29" y="17.91" width="7.31" height="3.08" rx="0.3"/><path class="d" d="M12.38,5q-1.12,2-2.23,4H7.51Q8.64,7,9.74,5Z"/><path class="e" d="M9.74,5q-1.11,2-2.23,4H6.07A1.06,1.06,0,0,1,5,8V6.1A1.06,1.06,0,0,1,6.07,5Z"/><path class="d" d="M19.29,5q-1.11,2-2.24,4H14.38q1.13-2,2.23-4Z"/><path class="e" d="M12.38,5h4.23q-1.11,2-2.23,4H10.15Q11.26,7,12.38,5Z"/><path class="d" d="M26.2,5,24,9.06H21.37L23.6,5Z"/><path class="e" d="M19.29,5H23.6l-2.23,4H17.05Q18.18,7,19.29,5Z"/><path class="e" d="M28.89,7.05a3.48,3.48,0,0,0,.64,2H24L26.2,5h3.33A3.48,3.48,0,0,0,28.89,7.05Z"/></g></svg>