<svg xmlns="http://www.w3.org/2000/svg" viewBox="0 0 250 25"><defs><style>.a{fill:#acd1d4;}.b,.e{fill:#9d1e2d;}.b,.c,.d,.e,.f,.g{stroke:#000;stroke-miterlimit:10;}.b{stroke-width:0.46px;}.c,.d{stroke-width:0.53px;}.d,.g{fill:#fff;}.e{stroke-width:0.47px;}.f,.g{stroke-width:0.54px;}</style></defs><title>BorderIcon</title><rect class="a" width="250" height="25"/><path d="M42.86,16.51a1.83,1.83,0,0,0,2,1.48c1.25,0,1.75-.59,1.75-1.34s-.4-1.25-2-1.64c-1.89-.46-2.54-1.11-2.54-2.23s.87-2.16,2.66-2.16,2.69,1.1,2.8,2.15H46.48a1.55,1.55,0,0,0-1.76-1.29c-1,0-1.52.44-1.52,1.2s.45,1.05,1.85,1.39c2.29.55,2.69,1.44,2.69,2.47,0,1.29-1,2.3-2.91,2.3s-2.88-1.1-3-2.33Z"/><path d="M50.92,11.64H48.34v-.91h6.24v.91H52v7.1H50.92Z"/><path d="M55.92,16.34l-.86,2.4H54l2.85-8h1.31l3,8H60l-.89-2.4Zm2.92-.91c-.76-2.1-1.18-3.22-1.36-3.83h0c-.19.68-.66,2-1.28,3.83Z"/><path d="M62.39,18.74v-8H63.8c1.14,1.88,3.64,5.86,4.09,6.73h0c-.08-1-.07-2.29-.07-3.6V10.73h1v8H67.52c-1.06-1.74-3.66-6-4.16-6.92h0c.06.91.06,2.27.06,3.71v3.21Z"/><path d="M73,16.4c0,1.81-.71,2.45-2,2.45a4.09,4.09,0,0,1-.85-.08v-.88a5.06,5.06,0,0,0,.74.05c1,0,1.1-.71,1.1-1.5V10.73H73Z"/><path d="M80,15h-4v2.83h4.37l-.14.91H75v-8h5.21v.91H76.06v2.45h4Z"/><path d="M84.79,18.74v-8H86.2c1.15,1.88,3.64,5.86,4.09,6.73h0c-.08-1-.07-2.29-.07-3.6V10.73h1v8H89.92c-1.06-1.74-3.66-6-4.16-6.92h0c.06.91.06,2.27.06,3.71v3.21Z"/><path d="M94.46,16.34l-.86,2.4h-1l2.85-8h1.31l3,8H98.55l-.89-2.4Zm2.93-.91c-.77-2.1-1.18-3.22-1.36-3.83h0c-.2.68-.66,2-1.28,3.83Z"/><path d="M110.41,15.76c0-1.35,0-2.87.06-3.76h-.06c-.37,1.62-1.16,4.26-1.93,6.74H107c-.57-2.17-1.39-5.18-1.74-6.76h-.06c.07.93.11,2.56.11,3.92v2.84h-1.57V10.81h2.55c.62,2.07,1.32,4.67,1.55,5.85h0c.19-1,1.06-3.82,1.72-5.85h2.46v7.93h-1.65Z"/><path d="M119.42,15.32h-3.79v2h4.18l-.2,1.41H114V10.81h5.63v1.4h-4v1.7h3.79Z"/><path d="M124.18,16.2c0,1.82-.59,2.65-2.33,2.65a4.74,4.74,0,0,1-1.07-.1V17.39a5.56,5.56,0,0,0,.78.05c.79,0,.91-.53.91-1.13v-5.5h1.71Z"/><path d="M126,18.74V10.81h2.13c1,1.78,2.82,5,3.19,5.86h0c-.09-.83-.09-2.21-.09-3.51V10.81h1.55v7.93h-2c-.85-1.55-2.88-5.24-3.28-6.16h0c.06.7.08,2.33.08,3.75v2.41Z"/><path d="M136.42,10.81v7.93h-1.71V10.81Z"/><path d="M138.32,10.81H140V13.9h3.19V10.81h1.72v7.93h-1.72V15.31H140v3.43h-1.71Z"/><path d="M149.61,10.81h3.28c1.69,0,2.83.95,2.83,2.45,0,1.73-1.3,2.52-2.87,2.52h-1.52v3h-1.72Zm1.72,3.6h1.31c.79,0,1.35-.3,1.35-1.11s-.59-1.13-1.32-1.13h-1.34Z"/><path d="M158.68,15.56v3.18H157V10.81h3.48c1.73,0,2.66.95,2.66,2.18A1.89,1.89,0,0,1,162,14.86c.39.15,1,.56,1,2v.4a6.24,6.24,0,0,0,.12,1.51h-1.63a5.61,5.61,0,0,1-.16-1.78v-.12c0-.87-.22-1.28-1.5-1.28Zm0-1.36h1.44c.94,0,1.3-.36,1.3-1s-.42-1-1.26-1h-1.48Z"/><path d="M170.13,15.32h-3.79v2h4.19l-.21,1.41h-5.64V10.81h5.62v1.4h-4v1.7h3.79Z"/><path d="M171.75,10.81h1.71V13.9h3.2V10.81h1.71v7.93h-1.71V15.31h-3.2v3.43h-1.71Z"/><path d="M187.56,14.75a3.79,3.79,0,0,1-3.9,4.1c-2.49,0-3.79-1.81-3.79-4.08a3.78,3.78,0,0,1,3.9-4.08C186.09,10.69,187.56,12.32,187.56,14.75Zm-5.92,0c0,1.55.68,2.72,2.08,2.72s2.07-1.28,2.07-2.69-.62-2.68-2.09-2.68S181.64,13.19,181.64,14.74Z"/><path d="M189.06,10.81h3.14A3.61,3.61,0,0,1,196,14.67a3.77,3.77,0,0,1-3.89,4.07h-3.07Zm1.71,6.54h1.29c1.52,0,2.19-1.13,2.19-2.67,0-1.3-.63-2.49-2.18-2.49h-1.3Z"/><path d="M199.24,10.81v7.93h-1.72V10.81Z"/><path d="M201.13,10.81h1.72V13.9H206V10.81h1.71v7.93H206V15.31h-3.19v3.43h-1.72Z"/><circle class="b" cx="7.11" cy="6.29" r="3.47"/><path d="M7.11,10.62a3.92,3.92,0,0,0,2.63-1v8.68H4.49V9.61A3.92,3.92,0,0,0,7.11,10.62Z"/><rect x="3" y="18.66" width="8.33" height="3.52" rx="0.34" transform="translate(14.33 40.84) rotate(-180)"/><path class="c" d="M30.61,4l2.55,4.57h3L33.62,4Z"/><path class="d" d="M33.62,4l2.54,4.57h1.65A1.21,1.21,0,0,0,39,7.36V5.21A1.21,1.21,0,0,0,37.81,4Z"/><path class="c" d="M22.73,4l2.55,4.57h3L25.79,4Z"/><path class="d" d="M30.61,4H25.79l2.54,4.57h4.83Z"/><path class="c" d="M14.86,4l2.55,4.57h3L17.82,4Z"/><path class="d" d="M22.73,4H17.82l2.55,4.57h4.91Z"/><path class="d" d="M11.79,6.29a3.9,3.9,0,0,1-.73,2.28h6.35L14.86,4h-3.8A3.93,3.93,0,0,1,11.79,6.29Z"/><circle class="e" cx="242.84" cy="6.22" r="3.5"/><path d="M242.84,10.6a4,4,0,0,1-2.65-1v8.77h5.31V9.58A4,4,0,0,1,242.84,10.6Z"/><rect x="238.58" y="18.73" width="8.42" height="3.55" rx="0.35"/><path class="f" d="M219.1,3.91l-2.58,4.62h-3q1.27-2.31,2.57-4.62Z"/><path class="g" d="M216.06,3.91q-1.29,2.31-2.57,4.62h-1.67a1.22,1.22,0,0,1-1.23-1.22V5.13a1.23,1.23,0,0,1,1.23-1.22Z"/><path class="f" d="M227.06,3.91l-2.58,4.62H221.4L224,3.91Z"/><path class="g" d="M219.1,3.91H224L221.4,8.53h-4.88Z"/><path class="f" d="M235,3.91l-2.58,4.62h-3L232,3.91Z"/><path class="g" d="M227.06,3.91h5l-2.58,4.62h-5Z"/><path class="g" d="M238.11,6.22a4,4,0,0,0,.74,2.31h-6.41L235,3.91h3.83A4,4,0,0,0,238.11,6.22Z"/></svg>