<svg xmlns="http://www.w3.org/2000/svg" viewBox="0 0 270 25"><defs><style>.a{fill:#c7dee0;}.b{fill:#9d1e2d;}.c{fill:#fff;}</style></defs><title>EventsBanner</title><rect class="a" width="270" height="25"/><polygon points="46.53 24.91 25.79 24.91 32.16 0 40.13 0 46.53 24.91"/><polygon points="22.99 24.91 20 24.91 30.05 0 31.23 0 22.99 24.91"/><polygon class="b" points="49.16 24.91 52.15 24.91 42.1 0 40.92 0 49.16 24.91"/><rect class="c" x="35.49" width="1.31" height="2.02"/><polygon class="c" points="37.11 10.89 35.27 10.89 35.49 5.16 36.8 5.16 37.11 10.89"/><polygon class="c" points="37.36 19.72 34.96 19.72 35.27 14.15 37.11 14.15 37.36 19.72"/><polygon class="c" points="37.6 24.91 34.71 24.91 34.96 22.89 37.36 22.89 37.6 24.91"/><polygon points="244.39 24.96 223.64 24.96 230.01 0.04 237.98 0.04 244.39 24.96"/><polygon class="b" points="220.84 24.96 217.85 24.96 227.9 0.04 229.08 0.04 220.84 24.96"/><polygon points="247.01 24.96 250 24.96 239.95 0.04 238.77 0.04 247.01 24.96"/><rect class="c" x="233.34" y="0.04" width="1.31" height="2.02"/><polygon class="c" points="234.96 10.93 233.13 10.93 233.34 5.21 234.65 5.21 234.96 10.93"/><polygon class="c" points="235.21 19.76 232.81 19.76 233.13 14.2 234.96 14.2 235.21 19.76"/><polygon class="c" points="235.46 24.96 232.57 24.96 232.81 22.94 235.21 22.94 235.46 24.96"/></svg>