<svg xmlns="http://www.w3.org/2000/svg" viewBox="0 0 270 25"><defs><style>.a{fill:#c7dee0;}.b{fill:#9d1e2d;}.b,.e{stroke:#231f20;stroke-miterlimit:10;stroke-width:1.69px;}.c{fill:#231f20;}.d,.e{fill:#fff;}</style></defs><title>ForecastBanner</title><rect class="a" width="270" height="25"/><path class="b" d="M35.38,10.31H24l.17-2.59c0-1.8,1-3.26,2.14-3.26H33c1.18,0,2.14,1.46,2.14,3.26Z"/><path class="c" d="M37.83,11.46V16.9a1,1,0,0,1-1,1H35.57a1,1,0,0,1-1-1V15.73H24.75V16.9a1,1,0,0,1-1,1h-1.3a1,1,0,0,1-1-1V11.46a2.38,2.38,0,0,1,2.37-2.39H35.45A2.38,2.38,0,0,1,37.83,11.46Z"/><circle class="d" cx="25.14" cy="12.43" r="1.01"/><circle class="d" cx="34.37" cy="12.43" r="1.01"/><path class="e" d="M41.52,13H30.09l.18-2.59c0-1.79,1-3.25,2.13-3.25h6.77c1.19,0,2.14,1.46,2.14,3.25Z"/><path class="c" d="M44,14.13v5.43a1,1,0,0,1-1,1H41.72a1,1,0,0,1-1-1V18.4H30.89v1.16a1,1,0,0,1-1,1h-1.3a1,1,0,0,1-1-1V14.13A2.38,2.38,0,0,1,30,11.74H41.6A2.38,2.38,0,0,1,44,14.13Z"/><circle class="d" cx="31.29" cy="15.09" r="1.01"/><circle class="d" cx="40.51" cy="15.09" r="1.01"/><path class="b" d="M236.12,10.78h11.42l-.17-2.59c0-1.79-1-3.25-2.13-3.25h-6.77c-1.19,0-2.14,1.46-2.14,3.25Z"/><path class="c" d="M233.66,11.93v5.44a1,1,0,0,0,1,1h1.29a1,1,0,0,0,1-1V16.21h9.86v1.16a1,1,0,0,0,1,1H249a1,1,0,0,0,1-1V11.93a2.38,2.38,0,0,0-2.38-2.38H236A2.37,2.37,0,0,0,233.66,11.93Z"/><circle class="d" cx="246.35" cy="12.9" r="1.01"/><circle class="d" cx="237.13" cy="12.9" r="1.01"/><path class="e" d="M230,13.45H241.4l-.17-2.59c0-1.8-1-3.26-2.14-3.26h-6.77c-1.18,0-2.14,1.46-2.14,3.26Z"/><path class="c" d="M227.51,14.6V20a1,1,0,0,0,1,1h1.29a1,1,0,0,0,1-1V18.87h9.85V20a1,1,0,0,0,1,1h1.3a1,1,0,0,0,1-1V14.6a2.38,2.38,0,0,0-2.38-2.39H229.89A2.39,2.39,0,0,0,227.51,14.6Z"/><circle class="d" cx="240.2" cy="15.57" r="1.01"/><circle class="d" cx="230.98" cy="15.57" r="1.01"/></svg>