<svg xmlns="http://www.w3.org/2000/svg" viewBox="0 0 270 25"><defs><style>.a{fill:#acd1d4;}.b{font-size:13px;font-family:Corbel;}.c,.d,.e{font-family:Corbel-Bold, Corbel;font-weight:700;}.c{letter-spacing:0em;}.d{letter-spacing:-0.01em;}.e{letter-spacing:0em;}.f{fill:#9d1e2d;}.f,.i{stroke:#231f20;stroke-miterlimit:10;stroke-width:1.92px;}.g{fill:#231f20;}.h,.i{fill:#fff;}</style></defs><title>ForecastIcon</title><rect class="a" width="270" height="25"/><text class="b" transform="translate(69.03 17.31)">PROMETNE <tspan class="c" x="68.49" y="0">NAP</tspan><tspan class="d" x="94.3" y="0">O</tspan><tspan class="e" x="103.72" y="0">VEDI</tspan></text><path class="f" d="M40.73,10h-13L28,7.07c0-2,1.09-3.69,2.42-3.69h7.69c1.34,0,2.42,1.66,2.42,3.69Z"/><path class="g" d="M43.52,11.32v6.17a1.11,1.11,0,0,1-1.1,1.11H41a1.11,1.11,0,0,1-1.1-1.11V16.17H28.67v1.32a1.11,1.11,0,0,1-1.1,1.11H26.09A1.1,1.1,0,0,1,25,17.49V11.32a2.7,2.7,0,0,1,2.7-2.71H40.82A2.7,2.7,0,0,1,43.52,11.32Z"/><circle class="h" cx="29.12" cy="12.42" r="1.14"/><circle class="h" cx="39.59" cy="12.42" r="1.14"/><path class="i" d="M47.71,13h-13l.19-2.94c0-2,1.09-3.7,2.43-3.7H45c1.34,0,2.43,1.66,2.43,3.7Z"/><path class="g" d="M50.49,14.34v6.18a1.1,1.1,0,0,1-1.1,1.1H47.93a1.1,1.1,0,0,1-1.1-1.1V19.19H35.64v1.33a1.1,1.1,0,0,1-1.1,1.1H33.07a1.1,1.1,0,0,1-1.1-1.1V14.34a2.7,2.7,0,0,1,2.7-2.7H47.79A2.69,2.69,0,0,1,50.49,14.34Z"/><circle class="h" cx="36.09" cy="15.44" r="1.14"/><circle class="h" cx="46.56" cy="15.44" r="1.14"/><path class="f" d="M229.27,10h13L242,7.07c0-2-1.09-3.69-2.42-3.69h-7.69c-1.34,0-2.42,1.66-2.42,3.69Z"/><path class="g" d="M226.48,11.32v6.17a1.11,1.11,0,0,0,1.1,1.11h1.47a1.11,1.11,0,0,0,1.1-1.11V16.17h11.18v1.32a1.11,1.11,0,0,0,1.1,1.11h1.48A1.1,1.1,0,0,0,245,17.49V11.32a2.7,2.7,0,0,0-2.7-2.71H229.18A2.7,2.7,0,0,0,226.48,11.32Z"/><circle class="h" cx="240.88" cy="12.42" r="1.14"/><circle class="h" cx="230.41" cy="12.42" r="1.14"/><path class="i" d="M222.29,13h13l-.19-2.94c0-2-1.09-3.7-2.43-3.7H225c-1.34,0-2.43,1.66-2.43,3.7Z"/><path class="g" d="M219.51,14.34v6.18a1.1,1.1,0,0,0,1.1,1.1h1.46a1.1,1.1,0,0,0,1.1-1.1V19.19h11.19v1.33a1.1,1.1,0,0,0,1.1,1.1h1.47a1.1,1.1,0,0,0,1.1-1.1V14.34a2.7,2.7,0,0,0-2.7-2.7H222.21A2.69,2.69,0,0,0,219.51,14.34Z"/><circle class="h" cx="233.91" cy="15.44" r="1.14"/><circle class="h" cx="223.44" cy="15.44" r="1.14"/></svg>