<svg id="Layer_1" data-name="Layer 1" xmlns="http://www.w3.org/2000/svg" viewBox="0 0 49.85 49.85"><defs><style>.cls-1{fill:#00a99d;opacity:0.61;}.cls-2{fill:gray;}.cls-3{fill:#0049bc;}.cls-4{fill:#ffe39f;}.cls-5{fill:none;}.cls-6{fill:#42210b;}.cls-7,.cls-9{fill:#db9c6d;}.cls-7{opacity:0.85;}.cls-8{fill:#0071bc;}</style></defs><title>markoG</title><path class="cls-1" d="M.81,1V50.87H4.16c0-.24,0-.47,0-.71v0c.07-.4.13-.8.19-1.2a14.66,14.66,0,0,0,2.79.94,15.08,15.08,0,0,0,4.21.39c0,.2,0,.41,0,.61H40.82c0-.46,0-.92.07-1.38a9.62,9.62,0,0,0,3.38,0,19.71,19.71,0,0,0,3.17-.55c.12.58.22,1.17.33,1.75a0,0,0,0,1,0,0s0,0,0,.06,0,0,0,.07v0h2.86V1ZM34.48,30.57c0,.14,0,.26,0,.4s-.06.43-.1.64c0,0,0,.06,0,.09a4.21,4.21,0,0,1-.12.48c0,.14-.08.28-.13.41a4.45,4.45,0,0,1-.19.51c-.09.23-.19.45-.3.67l-.13.23a9.29,9.29,0,0,1-.62,1l-.36.43a5.14,5.14,0,0,1-.38.42l-.33.32a7,7,0,0,1-.61.5l-.13.1c-.22.16-.45.31-.68.45a6.28,6.28,0,0,1-.81.43l-.26.12a9.45,9.45,0,0,1-1.42.47l-.41.09a9.62,9.62,0,0,1-1.71.16A8.66,8.66,0,0,1,17,30.74l1.17-.4s0,.06,0,.09a7.94,7.94,0,0,0,.41,1.78c0,.11.09.23.13.35a6.38,6.38,0,0,0,.33.71,2.79,2.79,0,0,0,.18.34,7.23,7.23,0,0,0,1.51,1.85,7.46,7.46,0,0,0,1.51,1l.3.15.4.17.27.1a6.06,6.06,0,0,0,1,.28l.14,0s0,0,0,0a7.35,7.35,0,0,0,.82.11,7.45,7.45,0,0,0,3.62-.6,7.63,7.63,0,0,0,4.52-6.67l1.11.49Z" transform="translate(-0.81 -1.02)"/><path class="cls-2" d="M18.17,34.69Z" transform="translate(-0.81 -1.02)"/><path class="cls-3" d="M34.48,30.56h0c0,.14,0,.26,0,.4s-.06.43-.1.64c0,0,0,.06,0,.09a4.21,4.21,0,0,1-.12.48c0,.14-.08.28-.13.41a4.45,4.45,0,0,1-.19.51c-.09.23-.19.45-.3.67l-.13.23a9.29,9.29,0,0,1-.62,1l-.36.43a5.14,5.14,0,0,1-.38.42l-.33.32a7,7,0,0,1-.61.5l-.13.1c-.22.16-.45.31-.68.45a6.28,6.28,0,0,1-.81.43l-.26.12a9.45,9.45,0,0,1-1.42.47l-.41.09a9.62,9.62,0,0,1-1.71.16A8.66,8.66,0,0,1,17,30.74l1.17-.4s0,.06,0,.09a7.94,7.94,0,0,0,.41,1.78c0,.11.09.23.13.35a4.08,4.08,0,0,0,.33.71,2.79,2.79,0,0,0,.18.34,7.23,7.23,0,0,0,1.51,1.85,7.46,7.46,0,0,0,1.51,1l.3.15.4.17.27.1a6.06,6.06,0,0,0,1,.28l.14,0s0,0,0,0a7.35,7.35,0,0,0,.82.11,7.45,7.45,0,0,0,3.62-.6,7.63,7.63,0,0,0,4.52-6.67Z" transform="translate(-0.81 -1.02)"/><path class="cls-2" d="M34.49,30.48a.22.22,0,0,1,0,.08l-1.11-.49a7.63,7.63,0,0,1-4.52,6.67,7.45,7.45,0,0,1-3.62.6,7.55,7.55,0,0,0,8.12-7.28.34.34,0,0,0,0-.1l.14.07.06,0Q34,30.29,34.49,30.48Z" transform="translate(-0.81 -1.02)"/><path class="cls-4" d="M34.63,16.75c-.22,1.31-.18,1.68-.55,2A1.69,1.69,0,0,1,33,19.1a9.23,9.23,0,0,1-.22,2.42,5.82,5.82,0,0,1-.38,1.23,4.13,4.13,0,0,1-.57.94,3.24,3.24,0,0,1-.29.34h0l-.13.14a9.25,9.25,0,0,1-1.1.91l0,0-.24.18-.43.29a6.54,6.54,0,0,1-4.53,1,5.9,5.9,0,0,1-1.9-.65l-.31-.16-.51-.3L22,25.22a10,10,0,0,1-1-.71,4.14,4.14,0,0,1-.38-.35l-.24-.26c-.07-.08-.13-.17-.19-.25L20,23.43,19.78,23a5.12,5.12,0,0,1-.38-1.06,6,6,0,0,1-.23-1.37,7.16,7.16,0,0,1,0-1.45,1.71,1.71,0,0,1-1.14-.5,1.08,1.08,0,0,1-.13-.16,3,3,0,0,1-.34-1.24,8.8,8.8,0,0,1-.25-3c.09-.54.19-1.08.59-1.24a.57.57,0,0,1,.25,0c0,.06,0,.12,0,.18s.05.23.06.29v0h0l.51.84a17.79,17.79,0,0,1,1,1.95c.12-1.32.23-2.64.34-4,.41-1.81,1.14-3.91,2.54-4.25.84-.21,1.11.43,2.57.65,2.35.35,3.1-1.12,5.23-.61A3.47,3.47,0,0,1,32.7,9.45c.26.43.36.87.42,2.78,0,.81.05,1.9,0,3.2l.3-.09.68-2a3.09,3.09,0,0,0,.14-.4,1,1,0,0,1,.29.16,3.81,3.81,0,0,1,.37,1.13A7.05,7.05,0,0,1,34.63,16.75Z" transform="translate(-0.81 -1.02)"/><path class="cls-5" d="M4.21,50.17c0,.23-.08.47-.11.71" transform="translate(-0.81 -1.02)"/><path class="cls-5" d="M47.77,50.7c-.07-.59-.16-1.19-.24-1.78" transform="translate(-0.81 -1.02)"/><path class="cls-6" d="M34.55,10.62a5.9,5.9,0,0,1-.31,2.3,3.09,3.09,0,0,1-.14.4l-.68,2-.3.09c0-1.3,0-2.39,0-3.2-.06-1.91-.16-2.35-.42-2.78a3.47,3.47,0,0,0-2.22-1.39c-2.13-.51-2.88,1-5.23.61C23.77,8.44,23.5,7.8,22.66,8c-1.4.34-2.13,2.44-2.54,4.25-.11,1.33-.22,2.65-.34,4a17.79,17.79,0,0,0-1-2l-.51-.84h0v0c0-.06,0-.16-.06-.29s0-.12,0-.18a11.73,11.73,0,0,1-.4-3.56,5.37,5.37,0,0,1,.92-2.46l-1.28.21A3.77,3.77,0,0,1,18.8,4.89a3.64,3.64,0,0,1,2.49-.74A5.16,5.16,0,0,1,24.45,2a4.85,4.85,0,0,1,2.9.32c-1.47.5-1.78.69-1.78.79s1.59-.25,3.51-.11a11.07,11.07,0,0,1,3.21.73c-1,.18-1.21.35-1.22.47,0,.28,1.13.32,2.2,1a5,5,0,0,1,1.58,1.94l-1.33,0a10,10,0,0,1,1,3C34.53,10.37,34.54,10.57,34.55,10.62Z" transform="translate(-0.81 -1.02)"/><path class="cls-7" d="M31.7,27.28a9.2,9.2,0,0,1-7.92-.6c-.15-.09-.3-.18-.44-.28h0l-.51-.28a8.43,8.43,0,0,1-2.45-2.21l.24.26a4,4,0,0,0,.38.35,10,10,0,0,0,1,.71l.43.25.51.3.31.16a5.9,5.9,0,0,0,1.9.65,6.54,6.54,0,0,0,4.53-1l.43-.29.24-.18,0,0a9.25,9.25,0,0,0,1.1-.91l.13-.14c0,.46,0,.92.06,1.38,0,.08,0,.15,0,.23l0,.66C31.67,26.63,31.69,27,31.7,27.28Z" transform="translate(-0.81 -1.02)"/><path class="cls-4" d="M33.37,30.07a7.63,7.63,0,0,1-4.52,6.67,7.45,7.45,0,0,1-3.62.6,7.35,7.35,0,0,1-.82-.11s0,0,0,0l-.14,0a6.06,6.06,0,0,1-1-.28l-.27-.1-.4-.17-.3-.15a7.46,7.46,0,0,1-1.51-1,7.23,7.23,0,0,1-1.51-1.85,2.79,2.79,0,0,1-.18-.34,6.38,6.38,0,0,1-.33-.71c0-.12-.09-.24-.13-.35a8.12,8.12,0,0,1-.39-1.77l1.05-.54a1.67,1.67,0,0,0,.93-1.42l.18-4.59a8.43,8.43,0,0,0,2.45,2.21l.51.28h0c.14.1.29.19.44.28a9.2,9.2,0,0,0,7.92.6l0,.6c0,.15,0,.3,0,.45A2,2,0,0,0,33,29.91l.35.15h0Z" transform="translate(-0.81 -1.02)"/><polyline class="cls-5" points="33.67 29.55 33.68 29.55 34.13 29.74 34.3 29.83"/><line class="cls-5" x1="32.56" y1="29.05" x2="32.55" y2="29.05"/><path class="cls-8" d="M48.49,48.41a2.58,2.58,0,0,1-1,.5l-.09,0a19.71,19.71,0,0,1-3.17.55,9.62,9.62,0,0,1-3.38,0c0,.46,0,.92-.07,1.38H11.39c0-.2,0-.41,0-.61a15.08,15.08,0,0,1-4.21-.39,14.66,14.66,0,0,1-2.79-.94l-.1,0A13.37,13.37,0,0,1,3,48.22c.89-3.1,1.48-5.63,1.85-7.35C5.66,37,5.72,35.68,7,34.43c.9-.89,1.7-1,5.17-2.11,1.11-.34,2.31-.71,4.72-1.54h0l.07,0a8.66,8.66,0,0,0,8.73,7.71,9.62,9.62,0,0,0,1.71-.16l.41-.09a9.45,9.45,0,0,0,1.42-.47l.26-.12a6.28,6.28,0,0,0,.81-.43,5,5,0,0,0,.68-.45l.13-.1a7,7,0,0,0,.61-.5l.33-.32a4.81,4.81,0,0,0,.38-.42l.36-.43a9.29,9.29,0,0,0,.62-1l.13-.23c.11-.22.21-.44.3-.67a4.45,4.45,0,0,0,.19-.51c0-.13.09-.27.13-.41a4.21,4.21,0,0,0,.12-.48s0-.06,0-.09c0-.21.08-.42.1-.64s0-.26,0-.4h0a.22.22,0,0,0,0-.08l.14.06c1.89.83,3.55,1.42,4.86,1.85,2.93.93,3.95,1,5.1,2S46,36.65,46.83,40.3C47.35,42.69,47.91,45.4,48.49,48.41Z" transform="translate(-0.81 -1.02)"/><path class="cls-4" d="M11.4,50.27c0,.2,0,.41,0,.61H4.16c0-.24,0-.47,0-.71v0c.07-.4.13-.8.19-1.2a14.66,14.66,0,0,0,2.79.94A15.08,15.08,0,0,0,11.4,50.27Z" transform="translate(-0.81 -1.02)"/><path class="cls-9" d="M4.4,48.94c-.06.4-.12.8-.19,1.2L4.3,48.9Z" transform="translate(-0.81 -1.02)"/><path class="cls-4" d="M47.8,50.86v0h-7c0-.46,0-.92.07-1.38a9.62,9.62,0,0,0,3.38,0A19.71,19.71,0,0,0,47.44,49c.12.58.22,1.17.33,1.75a0,0,0,0,1,0,0s0,0,0,.06S47.8,50.84,47.8,50.86Z" transform="translate(-0.81 -1.02)"/></svg>