<svg id="Layer_1" data-name="Layer 1" xmlns="http://www.w3.org/2000/svg" viewBox="0 0 49.85 52.28"><defs><style>.cls-1{fill:#00a99d;opacity:0.61;}.cls-2{fill:none;}.cls-3{fill:#f7931e;}.cls-4{fill:#e35a24;}.cls-5,.cls-6{fill:#ffe39f;}.cls-5,.cls-7{opacity:0.6;}.cls-7,.cls-9{fill:#db9c6d;}.cls-8{fill:#fffbb6;}</style></defs><title>marusaK</title><rect class="cls-1" width="49.85" height="49.85"/><path class="cls-2" d="M14,52.08l-.06-1.32" transform="translate(-0.94 -0.8)"/><path class="cls-3" d="M43.16,45l-.86.07c-.71.06-1.45.11-2.21.14s-1.78.07-2.62.07c-.09,1.81-.19,3.62-.29,5.44H13.92c-.08-1.75-.17-3.5-.26-5.25a23.18,23.18,0,0,1-3.44-.13c-.57-.06-1.1-.14-1.6-.23L7.86,45a48.11,48.11,0,0,1,.7-5.43c.76-4.06,1.46-4.88,1.91-5.29a9.91,9.91,0,0,1,2.94-1.66c.91-.38,1.33-.43,2.42-.83l.47-.19h0l.8-.33a2.82,2.82,0,0,1-.07.31,3.61,3.61,0,0,1-.43,1A5.08,5.08,0,0,1,14.1,34.7a2.75,2.75,0,0,0,2,0c.88-.45,1.21-1.46,1.36-1.4s.08.35-.38,1.87a4.35,4.35,0,0,0,2.51-1.49,3.25,3.25,0,0,0,.43-.76,9,9,0,0,0,11-.07,6.46,6.46,0,0,0,2.73,2.36c-.48-1.28-.5-1.58-.42-1.62s.59,1,1.53,1.32a2.69,2.69,0,0,0,2-.25,4.06,4.06,0,0,1-2-1,3.77,3.77,0,0,1-1.07-2.06c.59.23,1.26.47,2,.72,3.1,1,4,1,5,2,.38.38.86,1,1.53,4.72A58.45,58.45,0,0,1,43.16,45Z" transform="translate(-0.94 -0.8)"/><path class="cls-2" d="M37.18,50.76l-.09,1.71" transform="translate(-0.94 -0.8)"/><path class="cls-4" d="M31,32.81a9,9,0,0,1-11,.07,3.66,3.66,0,0,0,.25-.94,8.19,8.19,0,0,0,6.43,1.63A8.6,8.6,0,0,0,30.59,32a3.25,3.25,0,0,0,.24.53A2.14,2.14,0,0,0,31,32.81Z" transform="translate(-0.94 -0.8)"/><path class="cls-5" d="M30,9.06l0,0h0Z" transform="translate(-0.94 -0.8)"/><path class="cls-6" d="M30.59,32a8.6,8.6,0,0,1-3.84,1.61,8.19,8.19,0,0,1-6.43-1.63,6.3,6.3,0,0,0,.08-.77c0-.35,0-.7.05-1.06A3.06,3.06,0,0,0,21,29.4a4.25,4.25,0,0,0,.37-2.33c0-.85,0-1.63-.05-2.33a5.91,5.91,0,0,0,.61.63l0,0a1.35,1.35,0,0,0,.16.19,5.45,5.45,0,0,0,2.24,1.63,5.62,5.62,0,0,0,3.06.26,6.3,6.3,0,0,0,2.5-1c0,.21,0,.42,0,.63a4.58,4.58,0,0,0,.33,2.25A7.35,7.35,0,0,0,30.59,32Z" transform="translate(-0.94 -0.8)"/><path class="cls-7" d="M21,29.4a3.06,3.06,0,0,1-.53.71c.09-2.23.12-4.59.12-6.3l.19.27a6.34,6.34,0,0,0,.54.66c0,.7,0,1.48.05,2.33A4.25,4.25,0,0,1,21,29.4Z" transform="translate(-0.94 -0.8)"/><path class="cls-8" d="M36.91,34.62a2.69,2.69,0,0,1-2,.25c-.94-.34-1.38-1.39-1.53-1.32s-.06.34.42,1.62A6.46,6.46,0,0,1,31,32.81a2.14,2.14,0,0,1-.2-.32,3.25,3.25,0,0,1-.24-.53,7.35,7.35,0,0,1-.37-2.64c0-.44,0-.94.05-1.51s.09-1.11.16-1.76.16-1.25.28-1.94a8.57,8.57,0,0,0,1.54-2.68,10,10,0,0,0,.39-3.93,14.19,14.19,0,0,0-2.17-7.75c-.17-.25-.33-.48-.49-.67v0l0,0-.16-.22a.88.88,0,0,0-.14-.15l-.13-.13-.18-.16-.2-.18c-.05-.25.56-.53.52-.61s-.29,0-1.13.23a7.93,7.93,0,0,0-4.37.89c-2.33,1.27-3.25,3.43-4,5.11a11.16,11.16,0,0,0-1,6.38,8.7,8.7,0,0,0,1.37,3.63c0,1.71,0,4.07-.12,6.3,0,.36,0,.71-.05,1.06a6.3,6.3,0,0,1-.08.77,3.66,3.66,0,0,1-.25.94,3.25,3.25,0,0,1-.43.76,4.35,4.35,0,0,1-2.51,1.49c.46-1.52.46-1.84.38-1.87s-.48,1-1.36,1.4a2.75,2.75,0,0,1-2,0,5.08,5.08,0,0,0,2.51-2.08,3.61,3.61,0,0,0,.43-1,2.82,2.82,0,0,0,.07-.31,8.58,8.58,0,0,0,.1-2.27,15.73,15.73,0,0,0-1.4-5.1,19.43,19.43,0,0,1-1-8c.06-2.06.26-9.14,5.28-12.35,2.23-1.42,6-2.44,9-.85a6.8,6.8,0,0,1,1.87,1.49,4.79,4.79,0,0,1,2.56.73c1.8,1.18,2.09,3.45,2.46,6.63a26.66,26.66,0,0,1-.38,9.79c-.58,2.46-1,2.51-1.4,5a14.71,14.71,0,0,0-.28,5.23h-.08l.09,0A3.77,3.77,0,0,0,35,33.64,4.06,4.06,0,0,0,36.91,34.62Z" transform="translate(-0.94 -0.8)"/><path class="cls-2" d="M33.88,31.58l-.09,0h.08A0,0,0,0,0,33.88,31.58Z" transform="translate(-0.94 -0.8)"/><path class="cls-6" d="M13.92,50.76H8.29l.33-5.61c.5.09,1,.17,1.6.23a23.18,23.18,0,0,0,3.44.13C13.75,47.26,13.84,49,13.92,50.76Z" transform="translate(-0.94 -0.8)"/><path class="cls-2" d="M8.29,50.76c0,.75-.09,1.51-.13,2.26" transform="translate(-0.94 -0.8)"/><path class="cls-6" d="M42.69,50.76H37.18c.1-1.82.2-3.63.29-5.44.84,0,1.72,0,2.62-.07s1.5-.08,2.21-.14C42.43,47,42.55,48.88,42.69,50.76Z" transform="translate(-0.94 -0.8)"/><path class="cls-2" d="M42.85,53.09c-.06-.78-.11-1.55-.16-2.33" transform="translate(-0.94 -0.8)"/><polyline class="cls-2" points="48.82 49.95 41.75 49.95 36.24 49.95"/><polyline class="cls-2" points="12.98 49.95 7.35 49.95 3.54 49.95"/><path class="cls-6" d="M32.25,21.43a8.57,8.57,0,0,1-1.54,2.68,7.41,7.41,0,0,1-.77.82,6.71,6.71,0,0,1-3.34,1.7,5.62,5.62,0,0,1-3.06-.26,5.17,5.17,0,0,1-1.6-1l0,0a5.91,5.91,0,0,1-.61-.63,6.34,6.34,0,0,1-.54-.66l-.19-.27a8.7,8.7,0,0,1-1.37-3.63,11.16,11.16,0,0,1,1-6.38c.71-1.68,1.63-3.84,4-5.11a7.93,7.93,0,0,1,4.37-.89c.84-.26,1.11-.29,1.13-.23s-.57.36-.52.61c0,.06.05.07.2.18l.18.16.13.13.14.15.16.22h0l0,0v0c.16.19.32.42.49.67a14.19,14.19,0,0,1,2.17,7.75A10,10,0,0,1,32.25,21.43Z" transform="translate(-0.94 -0.8)"/><path class="cls-7" d="M30.71,24.11c-.12.69-.21,1.34-.28,1.94s-.12,1.24-.16,1.76-.05,1.07-.05,1.51a4.58,4.58,0,0,1-.33-2.25c0-.21,0-.42,0-.63,0-.53,0-1,0-1.51A7.41,7.41,0,0,0,30.71,24.11Z" transform="translate(-0.94 -0.8)"/><path class="cls-9" d="M29.94,24.93c0,.47,0,1,0,1.51a6.3,6.3,0,0,1-2.5,1,5.62,5.62,0,0,1-3.06-.26,5.45,5.45,0,0,1-2.24-1.63,1.35,1.35,0,0,1-.16-.19,5.17,5.17,0,0,0,1.6,1,5.62,5.62,0,0,0,3.06.26A6.71,6.71,0,0,0,29.94,24.93Z" transform="translate(-0.94 -0.8)"/></svg>