<svg id="Layer_1" data-name="Layer 1" xmlns="http://www.w3.org/2000/svg" viewBox="0 0 49.85 49.85"><defs><style>.cls-1,.cls-7{fill:#db9c6d;}.cls-1,.cls-5,.cls-6{opacity:0.6;}.cls-2,.cls-4{fill:#00a99d;}.cls-2{opacity:0.61;}.cls-3,.cls-6{fill:#ffe39f;}.cls-5{fill:#c69c6d;}.cls-8{fill:#22b573;}.cls-9{fill:#009245;}.cls-10{fill:none;}.cls-11,.cls-12{fill:#f15a24;}.cls-12{stroke:#f15a24;stroke-miterlimit:10;stroke-width:0.75px;}</style></defs><title>natasaF</title><path class="cls-1" d="M21.93,22.27c0,.18,0,.35,0,.51v-.53S21.93,22.26,21.93,22.27Z" transform="translate(-0.86 -0.99)"/><path class="cls-1" d="M22.12,28.1h0a3.05,3.05,0,0,1-.32.38c.07-1.67.1-3.42.11-4.91A27.54,27.54,0,0,0,22.12,28.1Z" transform="translate(-0.86 -0.99)"/><path class="cls-1" d="M32.06,22.49l0,.18c-.06.13-.1.26-.14.37C32,22.79,32,22.6,32.06,22.49Z" transform="translate(-0.86 -0.99)"/><path class="cls-2" d="M50.71,1V50.84h-7c0-2.41.08-4.83.11-7.24l.45,0-.45-5.52c0-3.58-1.34-5.15-1.92-5.71-.37-.36-.92-.78-4-2l-1.39-.52h0s0,0,0,0a1.81,1.81,0,0,0,.18-.45,9.76,9.76,0,0,0,.17-1.53A5.7,5.7,0,0,1,37,26.61a9.27,9.27,0,0,1,.38-1.07c.12-.3.23-.55.3-.72A3.55,3.55,0,0,0,38,23.54,7.69,7.69,0,0,0,37.81,22c-.07-1,.39-1.19.64-2.25a6.82,6.82,0,0,0-.26-3.24c-.32-1.46-.59-1.47-.76-2.68a10.74,10.74,0,0,1,0-1.94,3,3,0,0,0-.1-.53,5.92,5.92,0,0,0-1-1.76,18.13,18.13,0,0,1-1.07-1.83c-.53-1-.62-1.3-.81-1.62-.42-.73-1.38-1.6-3.78-2A6.44,6.44,0,0,0,29,3.48a7.39,7.39,0,0,0-5.28.9A7.88,7.88,0,0,0,20.2,7,8.83,8.83,0,0,0,19,9.37a9.52,9.52,0,0,0-.63,2.92c0,.94.11.92.05,1.87-.08,1.18-.32,1.43-.43,2.52A21,21,0,0,0,18.08,19a12.63,12.63,0,0,1-.65,3.37c-.54,1.89-.95,2.4-.71,3.39a7.64,7.64,0,0,0,.48,1.29c.46,1,.64.95.88,1.61a4.19,4.19,0,0,1,.14.49v0l-2.4.89c-3.15,1.22-3.72,1.62-4.21,2.19S10.7,33.7,10.14,37c-.27,1.58-.59,3.75-.83,6.39l.82,0c0,2.47-.07,4.94-.11,7.42H.86V1Z" transform="translate(-0.86 -0.99)"/><path class="cls-3" d="M15.23,50.84H10c0-2.48.07-5,.11-7.42l2.06.08c1,0,1.92.08,2.87.14,0,1.4,0,2.85.06,4.31C15.15,48.93,15.18,49.89,15.23,50.84Z" transform="translate(-0.86 -0.99)"/><path class="cls-3" d="M43.85,43.6c0,2.41-.07,4.83-.11,7.24H38.51c.11-1.1.21-2.25.29-3.42.09-1.33.16-2.61.19-3.86.75,0,1.51.07,2.3.08S43,43.64,43.85,43.6Z" transform="translate(-0.86 -0.99)"/><path class="cls-4" d="M43.85,38.06c0-3.58-1.34-5.15-1.92-5.71-.37-.36-.92-.78-4-2l-1.39-.52h0s0,0,0,0a1.81,1.81,0,0,0,.18-.45,9.76,9.76,0,0,0,.17-1.53A5.7,5.7,0,0,1,37,26.61a9.27,9.27,0,0,1,.38-1.07c.12-.3.23-.55.3-.72A3.55,3.55,0,0,0,38,23.54,7.69,7.69,0,0,0,37.81,22c-.07-1,.39-1.19.64-2.25a6.82,6.82,0,0,0-.26-3.24c-.32-1.46-.59-1.47-.76-2.68a10.74,10.74,0,0,1,0-1.94,3,3,0,0,0-.1-.53,5.92,5.92,0,0,0-1-1.76,18.13,18.13,0,0,1-1.07-1.83c-.53-1-.62-1.3-.81-1.62-.42-.73-1.38-1.6-3.78-2A6.44,6.44,0,0,0,29,3.48a7.39,7.39,0,0,0-5.28.9A7.88,7.88,0,0,0,20.2,7,8.83,8.83,0,0,0,19,9.37a9.52,9.52,0,0,0-.63,2.92c0,.94.11.92.05,1.87-.08,1.18-.32,1.43-.43,2.52A21,21,0,0,0,18.08,19a12.63,12.63,0,0,1-.65,3.37c-.54,1.89-.95,2.4-.71,3.39a7.64,7.64,0,0,0,.48,1.29c.46,1,.64.95.88,1.61a4.19,4.19,0,0,1,.14.49v0l-2.4.89c-3.15,1.22-3.72,1.62-4.21,2.19S10.7,33.7,10.14,37c-.27,1.58-.59,3.75-.83,6.39l.82,0,2.06.08c1,0,1.92.08,2.87.14,0,1.4,0,2.85.06,4.31,0,1,.06,1.94.11,2.89H38.51c.11-1.1.21-2.25.29-3.42.09-1.33.16-2.61.19-3.86.75,0,1.51.07,2.3.08s1.74,0,2.56,0l.45,0Zm-12-15s0,0,0,0a2.74,2.74,0,0,0-.1,1.35h0s0,0,0,.07a2.19,2.19,0,0,1,0,1.44,3.37,3.37,0,0,1-.19.32l0,0h0a1.88,1.88,0,0,0-.07,1.31,1.88,1.88,0,0,1-.12-.3c0-.09-.06-.19-.08-.28a1.57,1.57,0,0,1,0-.23c0-.13,0-.26-.05-.4s0-.32,0-.49v-.47c0-.21,0-.42,0-.63,0-.53,0-1,0-1.51a7.41,7.41,0,0,0,.77-.82C32,22.6,32,22.79,31.89,23ZM22.7,25.45a4.25,4.25,0,0,1-.37,2.33,2.2,2.2,0,0,1-.21.32,27.54,27.54,0,0,1-.21-4.52c0-.27,0-.54,0-.8s0-.33,0-.51c0,0,0,0,0,0v-.06l.19.27a6.34,6.34,0,0,0,.54.66C22.67,23.82,22.69,24.6,22.7,25.45Z" transform="translate(-0.86 -0.99)"/><path class="cls-5" d="M31.79,24.51a2.19,2.19,0,0,1,0,1.44,3.37,3.37,0,0,1-.19.32l0,0h0a1.88,1.88,0,0,0-.07,1.31,1.88,1.88,0,0,1-.12-.3c0-.09-.06-.19-.08-.28a1.57,1.57,0,0,1,0-.23c0-.13,0-.26-.05-.4s0-.32,0-.49v-.47c0-.21,0-.42,0-.63,0-.53,0-1,0-1.51a7.41,7.41,0,0,0,.77-.82c0,.11-.1.3-.17.55,0,0,0,0,0,0a2.74,2.74,0,0,0-.1,1.35h0S31.79,24.49,31.79,24.51Z" transform="translate(-0.86 -0.99)"/><path class="cls-6" d="M32.9,9.52l0,0h0Z" transform="translate(-0.86 -0.99)"/><path class="cls-3" d="M22.62,31a9.22,9.22,0,0,1-.95-.64,2.24,2.24,0,0,0,0-.24c0-.2,0-.38.05-.53l0-.69.06,0,.4-.23c.08.28.14.48.18.7s.06.34.09.52A11.45,11.45,0,0,1,22.62,31Z" transform="translate(-0.86 -0.99)"/><path class="cls-3" d="M31.57,27.7v0a.17.17,0,0,1,0-.07Z" transform="translate(-0.86 -0.99)"/><path class="cls-3" d="M22.24,28.59l-.4.23-.06,0c0-.12,0-.24,0-.37a3.05,3.05,0,0,0,.32-.38c0,.15.06.28.09.38Z" transform="translate(-0.86 -0.99)"/><path class="cls-3" d="M33.6,19.81a8.57,8.57,0,0,1-1.54,2.68,7.41,7.41,0,0,1-.77.82A6.71,6.71,0,0,1,28,25a5.62,5.62,0,0,1-3.06-.26,5.17,5.17,0,0,1-1.6-1s0,0,0,0a5.91,5.91,0,0,1-.61-.63,6.34,6.34,0,0,1-.54-.66l-.19-.27L21.8,22l-.22-.38a4.63,4.63,0,0,1-.28-.54c-.09-.18-.16-.35-.23-.52L21,20.39l0-.1,0-.09c0-.05,0-.09,0-.13s-.1-.31-.14-.46-.07-.28-.09-.4-.09-.48-.12-.65,0-.25-.05-.37,0-.24,0-.36,0-.09,0-.13,0-.06,0-.09c0-.21,0-.42,0-.63s0-.53,0-.78a11.8,11.8,0,0,1,.21-1.42A11,11,0,0,1,21,13.57c.12-.37.25-.7.37-1l.17-.4c.67-1.57,1.6-3.82,4-5.11a7.39,7.39,0,0,1,2.33-.8,6.58,6.58,0,0,1,2.63.34,2.9,2.9,0,0,1,.4.29,2.14,2.14,0,0,1,.27.28,1.34,1.34,0,0,1,.16.22h0l0,0v0c.16.19.32.42.49.67s.36.57.52.86.16.3.23.45a1.54,1.54,0,0,1,.08.19,3.31,3.31,0,0,1,.22.47v0h0l0,.06s0,0,0,0a5.38,5.38,0,0,1,.2.51c.1.28.19.55.27.82s.14.47.19.7.07.3.09.44a4.63,4.63,0,0,1,.09.49v0a2.34,2.34,0,0,1,0,.26s0,.06,0,.09l0,.22a.68.68,0,0,1,0,.14c0,.19,0,.38.05.56l0,.4c0,.12,0,.25,0,.36s0,.44,0,.62A10,10,0,0,1,33.6,19.81Z" transform="translate(-0.86 -0.99)"/><path class="cls-1" d="M31.61,26.31c0,.52,0,1,0,1.39v0a0,0,0,0,1,0,0v0A1.88,1.88,0,0,1,31.61,26.31Z" transform="translate(-0.86 -0.99)"/><path class="cls-1" d="M32,22.67c-.11.62-.19,1.21-.25,1.76a2.74,2.74,0,0,1,.1-1.35s0,0,0,0S32,22.8,32,22.67Z" transform="translate(-0.86 -0.99)"/><path class="cls-7" d="M31.29,23.31c0,.47,0,1,0,1.51a6.3,6.3,0,0,1-2.5,1,5.62,5.62,0,0,1-3.06-.26A5.45,5.45,0,0,1,23.45,24a1.35,1.35,0,0,1-.16-.19,5.17,5.17,0,0,0,1.6,1A5.62,5.62,0,0,0,28,25,6.71,6.71,0,0,0,31.29,23.31Z" transform="translate(-0.86 -0.99)"/><path class="cls-8" d="M44.3,43.58l-.45,0c-.82,0-1.68,0-2.56,0s-1.55,0-2.3-.08c0,1.25-.1,2.53-.19,3.86-.08,1.17-.18,2.32-.29,3.42H15.23c-.05-1-.08-1.91-.11-2.89,0-1.46-.06-2.91-.06-4.31-1-.06-1.91-.1-2.87-.14l-2.06-.08-.82,0c.24-2.64.56-4.81.83-6.39.56-3.3.9-4.06,1.47-4.72s1.06-1,4.21-2.19l2.4-.89c.3-.12.59-.22.87-.31l.13.23.1,0a2.32,2.32,0,0,0,.22.3,1,1,0,0,0,.15.19c.15.19.31.37.47.54s.33.35.51.51.47.41.72.6h0a5.88,5.88,0,0,0,.51.36,7.23,7.23,0,0,0,.66.4h0a8.86,8.86,0,0,0,4.21,1.07,8.56,8.56,0,0,0,2.38-.34l.38-.11a8.89,8.89,0,0,0,2.88-1.57c.11-.08.21-.17.3-.25h0c.17-.15.31-.29.47-.45a9.34,9.34,0,0,0,1.07-1.27l0,0,.1,0c.56.19,1.19.42,1.89.68l.16.06h0l1.39.52c3.1,1.22,3.65,1.64,4,2,.58.56,1.93,2.13,1.92,5.71Z" transform="translate(-0.86 -0.99)"/><path class="cls-8" d="M19.32,29.09l-.1,0-.13-.24.07,0A1.77,1.77,0,0,0,19.32,29.09Z" transform="translate(-0.86 -0.99)"/><path class="cls-9" d="M32.74,30.81c-.09.08-.19.17-.3.25a8.89,8.89,0,0,1-2.88,1.57l-.38.12A8.79,8.79,0,0,1,22.59,32c0-.24,0-.45,0-.63s0-.22,0-.32c.22.13.45.26.69.38a9,9,0,0,0,2.05.63,8.3,8.3,0,0,0,6.25-1.42l.33-.23.54-.38A2.91,2.91,0,0,1,32.74,30.81Z" transform="translate(-0.86 -0.99)"/><path class="cls-3" d="M22.62,31.06c0,.1,0,.21,0,.32s0,.39,0,.63a9.53,9.53,0,0,1-2.9-2.43,1.43,1.43,0,0,1-.15-.18l-.19-.32c0-.07-.08-.15-.13-.24l1-.35a7.61,7.61,0,0,0,.63.82l.14.17a6.47,6.47,0,0,0,.7.67,2.24,2.24,0,0,1,0,.24A9.28,9.28,0,0,0,22.62,31.06Z" transform="translate(-0.86 -0.99)"/><path class="cls-3" d="M34.29,29.08a9.34,9.34,0,0,1-1.07,1.27c-.16.16-.31.32-.48.46a2.91,2.91,0,0,0-.26-.77,2.72,2.72,0,0,0-.11-.25,10,10,0,0,0,1.14-1l.74.25A.25.25,0,0,1,34.29,29.08Z" transform="translate(-0.86 -0.99)"/><path class="cls-3" d="M34.33,29l0,0a.25.25,0,0,0,0-.07Z" transform="translate(-0.86 -0.99)"/><path class="cls-9" d="M19.54,29.4a3.46,3.46,0,0,1-.22-.31,1.77,1.77,0,0,1-.16-.22l.06,0c.05.09.1.17.13.24Z" transform="translate(-0.86 -0.99)"/><path class="cls-9" d="M31.94,30.12h0a.21.21,0,0,1-.08.06h0Z" transform="translate(-0.86 -0.99)"/><path class="cls-10" d="M19.35,29.06h0l-.1,0-.13-.23.07,0,.06,0A1.86,1.86,0,0,1,19.35,29.06Z" transform="translate(-0.86 -0.99)"/><path class="cls-3" d="M32.39,29.78s0,0,0,0a8.56,8.56,0,0,1-.79-2s0,0,0,0a.17.17,0,0,1,0-.07,0,0,0,0,1,0,0v0a1.88,1.88,0,0,1-.12-.3,1.47,1.47,0,0,1-.08-.28,1.57,1.57,0,0,1,0-.23c0-.13,0-.26-.05-.4s0-.32,0-.49v-.47c0-.21,0-.42,0-.63a6.3,6.3,0,0,1-2.5,1,5.62,5.62,0,0,1-3.06-.26A5.45,5.45,0,0,1,23.45,24a1.35,1.35,0,0,1-.16-.19s0,0,0,0a5.91,5.91,0,0,1-.61-.63c0,.7,0,1.48.05,2.33a4.25,4.25,0,0,1-.37,2.33,2.2,2.2,0,0,1-.21.32h0c0,.15.06.28.09.38l0,.1c.08.28.14.48.18.7s.06.34.09.52A11.45,11.45,0,0,1,22.62,31c.22.12.45.25.69.36a8.78,8.78,0,0,0,2.05.61,8.58,8.58,0,0,0,6.25-1.36l.33-.23.52-.35h0Zm-.45.29-.08.05h0l.08-.05Z" transform="translate(-0.86 -0.99)"/><path class="cls-10" d="M32,22.67c-.11.62-.19,1.21-.25,1.76a2.74,2.74,0,0,1,.1-1.35s0,0,0,0S32,22.8,32,22.67Z" transform="translate(-0.86 -0.99)"/><path class="cls-11" d="M22.33,27.78a2.2,2.2,0,0,1-.21.32,27.54,27.54,0,0,1-.21-4.52c0-.27,0-.54,0-.8s0-.33,0-.51c0,0,0,0,0,0v-.06l.19.27a6.34,6.34,0,0,0,.54.66c0,.7,0,1.48.05,2.33A4.25,4.25,0,0,1,22.33,27.78Z" transform="translate(-0.86 -0.99)"/><path class="cls-10" d="M21.92,22.25s0,0,0,0c0,.18,0,.35,0,.51Z" transform="translate(-0.86 -0.99)"/><path class="cls-10" d="M22.21,28.49l0,.1-.4.23-.06,0c0-.12,0-.24,0-.37.07-1.67.1-3.42.11-4.91a27.54,27.54,0,0,0,.21,4.52h0C22.15,28.26,22.18,28.39,22.21,28.49Z" transform="translate(-0.86 -0.99)"/><path class="cls-10" d="M33.6,19.81a8.57,8.57,0,0,1-1.54,2.68,7.41,7.41,0,0,1-.77.82c0,.47,0,1,0,1.51a6.3,6.3,0,0,1-2.5,1,5.62,5.62,0,0,1-3.06-.26A5.45,5.45,0,0,1,23.45,24a1.35,1.35,0,0,1-.16-.19s0,0,0,0a5.91,5.91,0,0,1-.61-.63,6.34,6.34,0,0,1-.54-.66l-.19-.27L21.8,22l-.22-.38a4.63,4.63,0,0,1-.28-.54c-.09-.18-.16-.35-.23-.52L21,20.39l-.07-.18h0l0-.13c0-.16-.1-.31-.14-.46s-.07-.28-.09-.4-.09-.48-.12-.65,0-.25-.05-.37,0-.24,0-.36,0-.09,0-.13,0-.06,0-.09c0-.21,0-.42,0-.63s0-.53,0-.78a11.8,11.8,0,0,1,.21-1.42A11,11,0,0,1,21,13.57c.12-.37.25-.7.37-1l.17-.4c.67-1.57,1.6-3.82,4-5.11a7.39,7.39,0,0,1,2.33-.8,6.58,6.58,0,0,1,2.63.34,2.9,2.9,0,0,1,.4.29,2.14,2.14,0,0,1,.27.28,1.34,1.34,0,0,1,.16.22h0l0,0v0c.16.19.32.42.49.67s.36.57.52.86.16.3.23.45a1.54,1.54,0,0,1,.08.19,3.31,3.31,0,0,1,.22.47v0h0l0,.06s0,0,0,0a5.38,5.38,0,0,1,.2.51c.1.28.19.55.27.82s.14.47.19.7.07.3.09.44a4.63,4.63,0,0,1,.09.49v0a2.34,2.34,0,0,1,0,.26s0,.06,0,.09l0,.22a.68.68,0,0,1,0,.14c0,.19,0,.38.05.56l0,.4c0,.12,0,.25,0,.36s0,.44,0,.62A10,10,0,0,1,33.6,19.81Z" transform="translate(-0.86 -0.99)"/><path class="cls-10" d="M34.33,29l0,0a.25.25,0,0,0,0-.07Z" transform="translate(-0.86 -0.99)"/><path class="cls-11" d="M40.38,26.59Z" transform="translate(-0.86 -0.99)"/><line class="cls-10" x1="32.29" y1="28.54" x2="31.62" y2="28.99"/><path class="cls-12" d="M38.15,20c-.25,1.06-.71,1.3-.64,2.25a7.69,7.69,0,0,1,.17,1.53,3.55,3.55,0,0,1-.34,1.28c-.07.17-.18.42-.3.72a9.27,9.27,0,0,0-.38,1.07,5.7,5.7,0,0,0-.09,1.19,9.76,9.76,0,0,1-.17,1.53,1.81,1.81,0,0,1-.18.45s0,0,0,0,0,0,0,0a3.25,3.25,0,0,0-.71.75,4.57,4.57,0,0,0-.43.81c-.31.72-.31.92-.47,1.28-.29.67-1,1.56-1.57,1.44s-.75-1.2-.77-1.32c-.12-.75.19-.94.22-1.66a1.9,1.9,0,0,0,0-.34s0,0,0-.08a2.71,2.71,0,0,0-.26-.74l-.09-.2s0,0,0,0a8.56,8.56,0,0,1-.79-2s0,0,0,0a.17.17,0,0,1,0-.07,0,0,0,0,1,0,0,0,0,0,0,1,0,0,1.88,1.88,0,0,1,.07-1.31h0l0,0,.13-.21.06-.11a14.7,14.7,0,0,0,.64-2.55,8.91,8.91,0,0,1,.46-1.91c.29-.73.45-.73.73-1.41a4.68,4.68,0,0,0,.43-2.29c-.07-.79-.38-1.24-.47-2.31,0-.1,0-.28-.06-.54A9.77,9.77,0,0,0,33,14a15.72,15.72,0,0,0-1.15-2.87A13,13,0,0,0,30.5,8.72a5,5,0,0,0-2.94-1.66,3.64,3.64,0,0,0-2.35.35,3.12,3.12,0,0,0-.69.56,18.57,18.57,0,0,0-2.7,4.14c-1.75,3.76-1.7,5.36-1.67,5.85,0,0,0,.09,0,.13s0,.24,0,.36a3,3,0,0,0,.05.37c0,.17.06.39.12.65s.06.26.09.4a5.39,5.39,0,0,0,.17.59c.47,1,.82,1.73.87,1.81l.05.11.07.13s0,0,0,0c0,.18,0,.35,0,.51s0,.53,0,.8a27.54,27.54,0,0,0,.21,4.52h0c0,.15.06.28.09.38l0,.1c.08.28.14.48.18.7s.06.34.09.52a11.45,11.45,0,0,1,.11,1.15.33.33,0,0,1,0,.1,1.48,1.48,0,0,1,0,.21c0,.08,0,.18,0,.28s0,.2,0,.32a.59.59,0,0,1,0,.13,5.52,5.52,0,0,1-.15.8,2.83,2.83,0,0,1-1.62-.47,2.78,2.78,0,0,1-1-1.2,1.7,1.7,0,0,1-1.18-.5c-.35-.38-.23-.77-.37-1.43v0a4.19,4.19,0,0,0-.14-.49c-.24-.66-.42-.62-.88-1.61A7.64,7.64,0,0,1,16.42,26c-.24-1,.17-1.5.71-3.39a12.63,12.63,0,0,0,.65-3.37,21,21,0,0,1-.09-2.34c.11-1.09.35-1.34.43-2.52.06-.95-.09-.93-.05-1.87a9.52,9.52,0,0,1,.63-2.92,8.83,8.83,0,0,1,1.2-2.4,7.88,7.88,0,0,1,3.49-2.59,7.39,7.39,0,0,1,5.28-.9,6.44,6.44,0,0,1,1.62.64c2.4.44,3.36,1.31,3.78,2,.19.32.28.64.81,1.62A18.13,18.13,0,0,0,36,9.87a5.92,5.92,0,0,1,1,1.76,3,3,0,0,1,.1.53,10.74,10.74,0,0,0,0,1.94c.17,1.21.44,1.22.76,2.68A6.82,6.82,0,0,1,38.15,20Z" transform="translate(-0.86 -0.99)"/></svg>