<svg xmlns="http://www.w3.org/2000/svg" viewBox="0 0 270 25"><defs><style>.a{fill:#c7dee0;}.b{font-size:12px;font-family:CenturyGothic, Century Gothic;}.c{fill:#fff;}.d,.e{fill:none;}.d,.e,.f{stroke:#231f20;stroke-miterlimit:10;}.d{stroke-width:0.56px;}.e{stroke-width:0.55px;}.f,.g{fill:#bcbec0;}.f{stroke-width:0.52px;}.h{fill:#9d1e2d;}</style></defs><title>NewsBanner</title><rect class="a" width="270" height="25"/><text class="b" transform="translate(78.67 17.31)">PROMETNE NOVICE</text><path class="c" d="M41.1,3.86H31.58a1.83,1.83,0,0,0-1.83,1.83V8.55h-3.6A1.15,1.15,0,0,0,25,9.7v9.63a2,2,0,0,0,2,2H28a1.71,1.71,0,0,0,1.71-1.7v1.7H41.1a1.83,1.83,0,0,0,1.83-1.83V5.69A1.83,1.83,0,0,0,41.1,3.86Z"/><path class="d" d="M29.84,19.44c0,.59-.05,1.17-.08,1.73l3.36,0h8.07A1.83,1.83,0,0,0,43,19.31V5.52a1.83,1.83,0,0,0-1.83-1.83H31.67a1.83,1.83,0,0,0-1.83,1.83V16.34C29.87,17.33,29.87,18.36,29.84,19.44Z"/><path class="e" d="M26.24,8.38h3.6a0,0,0,0,1,0,0V19.44a1.71,1.71,0,0,1-1.71,1.71H27.07a2,2,0,0,1-2-2V9.53a1.15,1.15,0,0,1,1.15-1.15Z"/><rect class="f" x="26.84" y="8.38" width="3" height="7.96"/><rect class="g" x="36.5" y="7.14" width="5.16" height="5.16" rx="0.82"/><rect class="h" x="31.38" y="7.46" width="4.36" height="0.9" rx="0.44"/><rect class="g" x="31.38" y="9.27" width="4.36" height="0.9" rx="0.44"/><rect class="g" x="31.38" y="11.07" width="4.36" height="0.9" rx="0.44"/><rect class="g" x="31.34" y="13.46" width="10.32" height="0.9" rx="0.44"/><rect class="g" x="31.34" y="15.15" width="10.32" height="0.9" rx="0.44"/><path class="c" d="M228.9,3.86h9.52a1.83,1.83,0,0,1,1.83,1.83V8.55h3.6A1.15,1.15,0,0,1,245,9.7v9.63a2,2,0,0,1-2,2H242a1.71,1.71,0,0,1-1.71-1.7v1.7H228.9a1.83,1.83,0,0,1-1.83-1.83V5.69A1.83,1.83,0,0,1,228.9,3.86Z"/><path class="d" d="M240.16,19.44c0,.59.05,1.17.08,1.73l-3.36,0h-8.07A1.83,1.83,0,0,1,227,19.31V5.52a1.83,1.83,0,0,1,1.83-1.83h9.52a1.83,1.83,0,0,1,1.83,1.83V16.34C240.13,17.33,240.13,18.36,240.16,19.44Z"/><path class="e" d="M242.14,8.38h1.06a1.71,1.71,0,0,1,1.71,1.71V21.14a0,0,0,0,1,0,0h-3.6A1.15,1.15,0,0,1,240.16,20V10.36a2,2,0,0,1,2-2Z" transform="translate(485.07 29.52) rotate(-180)"/><rect class="f" x="240.16" y="8.38" width="3" height="7.96" transform="translate(483.32 24.72) rotate(-180)"/><rect class="g" x="228.34" y="7.14" width="5.16" height="5.16" rx="0.82" transform="translate(461.84 19.44) rotate(-180)"/><rect class="h" x="234.26" y="7.46" width="4.36" height="0.9" rx="0.44" transform="translate(472.88 15.83) rotate(-180)"/><rect class="g" x="234.26" y="9.27" width="4.36" height="0.9" rx="0.44" transform="translate(472.88 19.43) rotate(-180)"/><rect class="g" x="234.26" y="11.07" width="4.36" height="0.9" rx="0.44" transform="translate(472.88 23.03) rotate(-180)"/><rect class="g" x="228.34" y="13.46" width="10.32" height="0.9" rx="0.44" transform="translate(467 27.82) rotate(-180)"/><rect class="g" x="228.34" y="15.15" width="10.32" height="0.9" rx="0.44" transform="translate(467 31.2) rotate(-180)"/></svg>