<svg id="Layer_1" data-name="Layer 1" xmlns="http://www.w3.org/2000/svg" viewBox="0 0 49.85 49.85"><defs><style>.cls-1,.cls-6{fill:#ffe39f;}.cls-1,.cls-2{opacity:0.61;}.cls-2{fill:#00a99d;}.cls-11,.cls-3{fill:#db9c6d;}.cls-3{opacity:0.6;}.cls-4{fill:#b16b46;stroke:#b16b46;}.cls-4,.cls-5{stroke-miterlimit:10;}.cls-5,.cls-8{fill:none;}.cls-5{stroke:#000;stroke-width:0.25px;}.cls-7{fill:#664791;}.cls-9{fill:#493599;}.cls-10{fill:#754c24;}</style></defs><title>pinaG</title><path class="cls-1" d="M13.63,47.06c-.12,1.22,0,2.47,0,3.69H8.14c.15-2.52.3-5,.44-7.55.51.06,1.05.12,1.6.16,1.13.09,2.19.12,3.18.11A10.77,10.77,0,0,1,13.63,47.06Z" transform="translate(-0.86 -0.9)"/><path class="cls-1" d="M41.21,43.26Q41,47,40.78,50.75H36.51c-.06-5.62.09-7.35.29-7.36a3.49,3.49,0,0,0,.43,0c.21,0,.36,0,.41,0,.26,0,.67-.06,1.27-.09S40.19,43.23,41.21,43.26Z" transform="translate(-0.86 -0.9)"/><path class="cls-2" d="M19.47,31.08a8.1,8.1,0,0,1-1-.89A9.88,9.88,0,0,0,19.47,31.08Z" transform="translate(-0.86 -0.9)"/><path class="cls-2" d="M50.71.9V50.75H40.54q.21-3.73.43-7.49l.61,0a21.12,21.12,0,0,0-.1-5.9c-.17-1-.45-2-.55-2.38a10.94,10.94,0,0,0-.86-2.55c-.53-.81-1.88-1.3-4.59-2.28a23.37,23.37,0,0,0-2.55-.78l-.79-.18-.76-.15-.07.06a11.87,11.87,0,0,1-1.3.93l0,.05-.29.21a8.46,8.46,0,0,1-3.55,1.4h-.08l-.58.07a6.45,6.45,0,0,1-1,0,4.57,4.57,0,0,1-.61-.07c-.2,0-.4-.05-.58-.09h0a7.84,7.84,0,0,1-1.91-.58,7.53,7.53,0,0,1-.85-.46l-.07,0a11.27,11.27,0,0,1-1-.61,11.14,11.14,0,0,1-1.29-1,.65.65,0,0,0-.15-.1h0a.42.42,0,0,0-.33,0l-.54.21-.89.35-2.93,1.17c-2.87,1.18-3.43,1.5-4,2.12l-.08.09c-1.2,1.48-1.44,4.6-1.44,4.6-.14,1.9-.29,3.73-.42,5.73l.9.11c-.14,2.52-.29,5-.44,7.55h-7V.9Z" transform="translate(-0.86 -0.9)"/><path class="cls-3" d="M30.09,22.35s0,0,0,.06c-.12.69-.21,1.34-.28,1.94,0,.14,0,.28,0,.42,0,.31-.06.6-.08.88a2.8,2.8,0,0,0,0,.4c0,.31,0,.59,0,.86,0,0,0,0,0,0s-.07-.31-.11-.48a10.2,10.2,0,0,1-.14-2.79c0-.17,0-.34,0-.49A6.33,6.33,0,0,0,30.09,22.35Z" transform="translate(-0.86 -0.9)"/><path class="cls-3" d="M20.73,26.18s0,0,0,.06a3.49,3.49,0,0,1-.86,1.86l0,0c.08-2.16.11-4.42.11-6.07l.19.27a6.34,6.34,0,0,0,.54.66l.15.17c0,.17,0,.34,0,.52A8.63,8.63,0,0,1,20.73,26.18Z" transform="translate(-0.86 -0.9)"/><path class="cls-4" d="M35.44,16.58a24.69,24.69,0,0,1-.52,3.06c-.58,2.46-1,2.51-1.4,5a16.33,16.33,0,0,0-.35,4.77l-.79-.18-.76-.15-.07.06a2.54,2.54,0,0,1-1.21-.71,3,3,0,0,1-.73-1.5s0,0,0,0c0-.24,0-.49,0-.76a.13.13,0,0,1,0-.06,2.8,2.8,0,0,1,0-.4c0-.28.05-.57.08-.88,0-.14,0-.28,0-.42.07-.6.16-1.25.28-1.94a8.57,8.57,0,0,0,1.54-2.68c.09-.26.16-.5.22-.74A6.69,6.69,0,0,0,32,17.7s0-.22,0-.43c0-.64,0-1.21,0-1.47-.08-2.63-.12-3.94-.67-5.2A14.42,14.42,0,0,0,30,8.27l-.18-.22a3.18,3.18,0,0,0-.49-.67v0l0,0-.16-.22A.88.88,0,0,0,29,7l-.13-.13-.18-.16-.2-.18A2.58,2.58,0,0,0,27.9,6c-.7-.37-1.11-.17-2.41-.29a9.16,9.16,0,0,0-1.81-.18,4.31,4.31,0,0,0-1.27.33,4.76,4.76,0,0,0-1.58,1.19,8,8,0,0,0-1.81,3A18.7,18.7,0,0,0,18.53,13c-.05.43-.08.78-.1,1.19a14.89,14.89,0,0,0,.05,1.84c.07,1.06,0,1.52,0,1.91a4.63,4.63,0,0,0,.05.51,8.7,8.7,0,0,0,1.37,3.63c0,1.64,0,3.87-.11,6a2.78,2.78,0,0,1-1.54.7h0a.42.42,0,0,0-.33,0l-.54.21-.89.35a19.48,19.48,0,0,0,.06-2.08,19.07,19.07,0,0,0-.52-4,40.66,40.66,0,0,1-.89-8.62c.06-1.74.24-6.85,4-10.09.23-.19,4.6-3.86,8.66-2.17A6.47,6.47,0,0,1,30.3,4.33a6.92,6.92,0,0,1,3.06,2.1A7.09,7.09,0,0,1,35,10.9,19.49,19.49,0,0,1,35.44,16.58Z" transform="translate(-0.86 -0.9)"/><path class="cls-5" d="M5.48,21.49" transform="translate(-0.86 -0.9)"/><path class="cls-6" d="M23.55,31.66a7.84,7.84,0,0,1-1.91-.58,7.53,7.53,0,0,1-.85-.46l.46.23A11,11,0,0,0,23.55,31.66Z" transform="translate(-0.86 -0.9)"/><path class="cls-6" d="M29.71,30.38a8.07,8.07,0,0,1-2.18,1.09,8.88,8.88,0,0,1-1.1.24h-.08A9.76,9.76,0,0,0,29.71,30.38Z" transform="translate(-0.86 -0.9)"/><path class="cls-7" d="M41.82,43.28l-.61,0c-1,0-1.82,0-2.3,0s-1,.09-1.27.09c0,0-.2,0-.41,0a3.49,3.49,0,0,1-.43,0c-.2,0-.35,1.74-.29,7.36H13.6c.07-1.22-.09-2.47,0-3.69a10.77,10.77,0,0,0-.27-3.59c-1,0-2,0-3.18-.11-.55,0-1.09-.1-1.6-.16l-.9-.11c.13-2,.28-3.83.42-5.73,0,0,.24-3.12,1.44-4.6l.08-.09c.54-.62,1.1-.94,4-2.12l2.93-1.17.89-.35a1.47,1.47,0,0,0,.1.13c.11.15.23.3.35.44a3.26,3.26,0,0,0,.31.33,2,2,0,0,0,.25.26,8.1,8.1,0,0,0,1,.89,9.49,9.49,0,0,0,10.85.1,9.08,9.08,0,0,0,1.94-1.82l.12-.15.79.18a23.37,23.37,0,0,1,2.55.78c2.71,1,4.06,1.47,4.59,2.28A10.94,10.94,0,0,1,41.17,35c.1.39.38,1.43.55,2.38A21.12,21.12,0,0,1,41.82,43.28Z" transform="translate(-0.86 -0.9)"/><path class="cls-8" d="M23.55,31.66a7.84,7.84,0,0,1-1.91-.58,7.53,7.53,0,0,1-.85-.46l.46.23A11,11,0,0,0,23.55,31.66Z" transform="translate(-0.86 -0.9)"/><path class="cls-8" d="M30.27,30.1l-.29.21a8.46,8.46,0,0,1-3.55,1.4h-.08a9.76,9.76,0,0,0,3.36-1.34,1.38,1.38,0,0,0,.24-.14l.22-.13.08-.06Z" transform="translate(-0.86 -0.9)"/><path class="cls-9" d="M32.38,29.21l-.12.15a9.08,9.08,0,0,1-1.94,1.82,9.49,9.49,0,0,1-10.85-.1,9.88,9.88,0,0,1-1-.89,2,2,0,0,1-.25-.26,3.26,3.26,0,0,1-.31-.33c-.12-.14-.24-.29-.35-.44a1.47,1.47,0,0,1-.1-.13l.54-.21a.42.42,0,0,1,.33,0h0a.65.65,0,0,1,.15.1,11.14,11.14,0,0,0,1.29,1,11.27,11.27,0,0,0,1,.61l.07,0a7.53,7.53,0,0,0,.85.46,7.84,7.84,0,0,0,1.91.58h0c.18,0,.38.06.58.09a4.57,4.57,0,0,0,.61.07,6.45,6.45,0,0,0,1,0l.58-.07h.08A8.46,8.46,0,0,0,30,30.31l.29-.21,0-.05a11.87,11.87,0,0,0,1.3-.93l.07-.06Z" transform="translate(-0.86 -0.9)"/><path class="cls-8" d="M23.55,31.66a7.84,7.84,0,0,1-1.91-.58,7.53,7.53,0,0,1-.85-.46l.46.23A11,11,0,0,0,23.55,31.66Z" transform="translate(-0.86 -0.9)"/><path class="cls-8" d="M30.27,30.1l-.29.21a8.46,8.46,0,0,1-3.55,1.4h-.08a9.76,9.76,0,0,0,3.36-1.34,1.38,1.38,0,0,0,.24-.14l.22-.13.08-.06Z" transform="translate(-0.86 -0.9)"/><path class="cls-10" d="M30.27,30.1l-.29.21,0,0s0,0,0,0l.22-.13.08-.06Z" transform="translate(-0.86 -0.9)"/><path class="cls-6" d="M.65,16.65Z" transform="translate(-0.86 -0.9)"/><path class="cls-8" d="M18.29,28.83h0l-.77.33" transform="translate(-0.86 -0.9)"/><path class="cls-6" d="M31.55,29.12a11.87,11.87,0,0,1-1.3.93l-.08.06-.22.13v0a1.88,1.88,0,0,1-.23.16,9.76,9.76,0,0,1-3.36,1.34l-.58.07a6.45,6.45,0,0,1-1,0,4.57,4.57,0,0,1-.61-.07c-.2,0-.4-.05-.58-.09h0a11,11,0,0,1-2.3-.81l-.46-.23-.07,0a11.27,11.27,0,0,1-1-.61,11.14,11.14,0,0,1-1.29-1,.65.65,0,0,0-.15-.1,2.78,2.78,0,0,0,1.54-.7h0l0,0a3.49,3.49,0,0,0,.86-1.86s0,0,0-.06a8.63,8.63,0,0,0,.12-2.51c0-.18,0-.35,0-.52a5,5,0,0,0,.46.46s0,0,0,0a1.35,1.35,0,0,0,.16.19,5.45,5.45,0,0,0,2.24,1.63,5.62,5.62,0,0,0,3.06.26,6.3,6.3,0,0,0,2.5-1c0-.53,0-1,0-1.51l.06-.06c0,.15,0,.32,0,.49a10.2,10.2,0,0,0,.14,2.79c0,.17.07.33.11.48s0,0,0,0a3,3,0,0,0,.73,1.5A2.54,2.54,0,0,0,31.55,29.12Z" transform="translate(-0.86 -0.9)"/><path class="cls-8" d="M31.55,29.12a2.61,2.61,0,0,0,.38.08l.33.16" transform="translate(-0.86 -0.9)"/><path class="cls-6" d="M32,17.27c0,.21,0,.43,0,.43A6.69,6.69,0,0,1,31.84,19c-.06.22-.13.44-.21.68a8.57,8.57,0,0,1-1.54,2.68,6.33,6.33,0,0,1-.71.76l-.06.06A6.71,6.71,0,0,1,26,24.87a5.62,5.62,0,0,1-3.06-.26,5.17,5.17,0,0,1-1.6-1s0,0,0,0a5,5,0,0,1-.46-.46L20.68,23a6.34,6.34,0,0,1-.54-.66L20,22.05a8.7,8.7,0,0,1-1.37-3.63,3.47,3.47,0,0,1-.06-.45c0-.39,0-.85,0-1.91a14.89,14.89,0,0,1-.05-1.84c0-.41.05-.76.1-1.19A18.7,18.7,0,0,1,19,10.12a8,8,0,0,1,1.81-3A4.76,4.76,0,0,1,22.41,5.9a4.31,4.31,0,0,1,1.27-.33,9.16,9.16,0,0,1,1.81.18c1.3.12,1.71-.08,2.41.29a2.58,2.58,0,0,1,.6.44l.2.18.18.16L29,7a.88.88,0,0,1,.14.15l.16.22,0,0v0a3.18,3.18,0,0,1,.49.67l.18.22a14.42,14.42,0,0,1,1.32,2.33c.55,1.26.59,2.57.67,5.2C32,16.06,32,16.63,32,17.27Z" transform="translate(-0.86 -0.9)"/><path class="cls-6" d="M18.52,18a10.28,10.28,0,0,1,0-1.91C18.55,17.12,18.52,17.58,18.52,18Z" transform="translate(-0.86 -0.9)"/><path class="cls-6" d="M30,8.27l-.18-.22a3.18,3.18,0,0,0-.49-.67v0l0,0-.16-.22A.88.88,0,0,0,29,7l-.13-.13-.18-.16-.2-.18A2.58,2.58,0,0,0,27.9,6a1.71,1.71,0,0,1,.48.25,1.67,1.67,0,0,1,.33.31l.18.16.13.13.14.15.16.22h0l0,0v0a3.32,3.32,0,0,1,.49.67A.91.91,0,0,1,30,8.27Z" transform="translate(-0.86 -0.9)"/><path class="cls-11" d="M29.38,23.11c0,.48,0,1,0,1.54a6.34,6.34,0,0,1-2.53,1.07,5.73,5.73,0,0,1-3.11-.27,5.53,5.53,0,0,1-2.27-1.67,1.35,1.35,0,0,1-.16-.19,5,5,0,0,0,1.62,1,5.7,5.7,0,0,0,3.1.27A6.81,6.81,0,0,0,29.38,23.11Z" transform="translate(-0.86 -0.9)"/><path class="cls-10" d="M39.55,7" transform="translate(-0.86 -0.9)"/><path class="cls-10" d="M20.26,9.31Z" transform="translate(-0.86 -0.9)"/><path class="cls-4" d="M-1.11,3.56" transform="translate(-0.86 -0.9)"/></svg>