<svg xmlns="http://www.w3.org/2000/svg" viewBox="0 0 270 25"><defs><style>.a{fill:#c7dee0;}.b{fill:#231f20;}.c{fill:#fff;}.d{fill:#9d1e2d;}.e{fill:#bcbec0;}</style></defs><title>ReportBanner</title><rect class="a" width="270" height="25"/><rect class="b" x="28.09" y="3.55" width="13.39" height="18.79"/><polygon class="c" points="40.39 21.45 30.54 21.45 27 17.91 27 2.66 40.39 2.66 40.39 21.45"/><path class="d" d="M27,17.91l3.68,0-.14,3.56Z"/><rect class="e" x="28.7" y="5.31" width="9.98" height="1.93"/><rect class="e" x="28.84" y="9.63" width="9.85" height="0.66"/><rect class="e" x="28.84" y="11.11" width="9.85" height="0.66"/><rect class="e" x="28.84" y="12.61" width="9.85" height="0.66"/><rect class="e" x="28.84" y="14.15" width="9.85" height="0.66"/><rect class="b" x="231.61" y="3.99" width="13.39" height="18.79"/><polygon class="c" points="243.91 21.89 234.07 21.89 230.53 18.35 230.53 3.1 243.91 3.1 243.91 21.89"/><path class="d" d="M230.53,18.35l3.68,0-.14,3.56Z"/><rect class="e" x="232.23" y="5.75" width="9.98" height="1.93"/><rect class="e" x="232.37" y="10.07" width="9.85" height="0.66"/><rect class="e" x="232.37" y="11.55" width="9.85" height="0.66"/><rect class="e" x="232.37" y="13.06" width="9.85" height="0.66"/><rect class="e" x="232.37" y="14.59" width="9.85" height="0.66"/></svg>