<svg xmlns="http://www.w3.org/2000/svg" viewBox="0 0 270 25"><defs><style>.a{fill:#acd1d4;}.b{font-size:13px;font-family:Corbel;}.c,.d{font-family:Corbel-Bold, Corbel;font-weight:700;}.d{letter-spacing:-0.04em;}.e{fill:#231f20;}.f{fill:#fff;}.g{fill:#9d1e2d;}.h{fill:#bcbec0;}</style></defs><title>ReportIcon</title><rect class="a" width="270" height="25"/><text class="b" transform="translate(68.45 17.31)">PROMETNO <tspan class="c" x="70.82" y="0">POROČI</tspan><tspan class="d" x="117.07" y="0">L</tspan><tspan class="c" x="123.55" y="0">O</tspan></text><rect class="e" x="28.09" y="3.55" width="13.39" height="18.79"/><polygon class="f" points="40.39 21.45 30.54 21.45 27 17.91 27 2.66 40.39 2.66 40.39 21.45"/><path class="g" d="M27,17.91l3.68,0-.14,3.56Z"/><rect class="h" x="28.7" y="5.31" width="9.98" height="1.93"/><rect class="h" x="28.84" y="9.63" width="9.85" height="0.66"/><rect class="h" x="28.84" y="11.11" width="9.85" height="0.66"/><rect class="h" x="28.84" y="12.61" width="9.85" height="0.66"/><rect class="h" x="28.84" y="14.15" width="9.85" height="0.66"/><rect class="e" x="231.61" y="3.99" width="13.39" height="18.79"/><polygon class="f" points="243.91 21.89 234.07 21.89 230.53 18.35 230.53 3.1 243.91 3.1 243.91 21.89"/><path class="g" d="M230.53,18.35l3.68,0-.14,3.56Z"/><rect class="h" x="232.23" y="5.75" width="9.98" height="1.93"/><rect class="h" x="232.37" y="10.07" width="9.85" height="0.66"/><rect class="h" x="232.37" y="11.55" width="9.85" height="0.66"/><rect class="h" x="232.37" y="13.06" width="9.85" height="0.66"/><rect class="h" x="232.37" y="14.59" width="9.85" height="0.66"/></svg>