<svg xmlns="http://www.w3.org/2000/svg" xmlns:xlink="http://www.w3.org/1999/xlink" viewBox="0 0 242.34 238.81"><defs><style>.a{fill:#fff;}.b{fill:none;}.c{fill:url(#a);}.d{fill:#0c4560;}.e{fill:url(#b);}.f{fill:#ef5033;}</style><linearGradient id="a" x1="152.35" y1="127.31" x2="152.35" y2="-21.33" gradientUnits="userSpaceOnUse"><stop offset="0" stop-color="#0cafbd"/><stop offset="1" stop-color="#abdff1"/></linearGradient><linearGradient id="b" x1="204.41" y1="184.4" x2="204.41" y2="53.11" xlink:href="#a"/></defs><title>VarnoDomov_logo</title><path class="a" d="M39.55,156.13c.22,1.38.56,2.46,2.75,8.52,1.52,4.21,2.81,7.7,3.73,10.17L128,146l109.83-25.3,23.33-28.63L226.07,76.2,197.24,68,64.46,123.86,42.3,142.1C39,148.52,39.1,153.29,39.55,156.13Z" transform="translate(-35.34 -7.49)"/><path class="a" d="M185.81,243.37a203.27,203.27,0,0,1-21.72,2.54,200,200,0,0,1-21.2.2A79.44,79.44,0,0,1,123,235.35c-6.44-4.8-13.57-10.1-18.24-20a44.51,44.51,0,0,1-4.11-21.18,42.61,42.61,0,0,1,5.49-19c6.65-11.13,18.11-15.39,29.42-19.42,38.13-13.58,57.2-20.37,57.59-20.49h0c35.5-10.65,51.11-17.39,55.31-19.8,16.75-9.65,17.08-15,17-16.65-.2-3.9-3.63-7-5.75-8.89-5-4.52-10.06-5.66-17-7.58-12.54-3.48,1-.55-35.3-11.25-4.73-1.39-8.65-2.52-11.31-3.29a11.63,11.63,0,0,1,3.53-7.26c3.47-3.16,8.93-3.76,13.8-1.47,6.28-.11,21,.17,34.64,5.79a48.44,48.44,0,0,1,14.52,8.82,37.31,37.31,0,0,1,6.81,8.09c.94,1.53,2.7,4.67,4.56,11.52a89.64,89.64,0,0,1,3,18.82c-3.85,12.49-11.77,31.55-29.26,46.1-28.44,23.65-60.21,17.07-70.6,37.46C173.14,203.3,171,217.2,185.81,243.37Z" transform="translate(-35.34 -7.49)"/><path class="b" d="M201.24,73.88c-.29.53-.6,1.07-.92,1.62l-.6-.2c-7.75-2.57-14.17-4.67-18.49-6.08-.71-.22-1.35-.44-1.94-.63l2.44.53C186.6,70.19,193.56,71.8,201.24,73.88Z" transform="translate(-35.34 -7.49)"/><path class="b" d="M204.77,67.32c-4.89-.48-10.07-.89-15.49-1.21q-4.78-.28-9.84-.48c3.09-.25,6.94-.48,11.38-.58,1.26,0,2.56,0,3.91,0s5.16,0,11,.33" transform="translate(-35.34 -7.49)"/><path class="c" d="M200.32,75.5c17.71,6,53,16.88,26.76,32.44-13.77,8.17-39.12,9.58-54.66,12.29-44.08,7.68-97.36,4.22-132.87,35.9C2.94,13.54,215.61-55.21,269.36,81.74c-18.19-13.37-41.8-15.12-63.63-16.4Q203,70.43,200.32,75.5Z" transform="translate(-35.34 -7.49)"/><path class="d" d="M272.83,99.74c-.76,34.13-88.56,43.6-111.87,51.55-52.94,18.06-68.68,59.79-18.07,94.82A121.05,121.05,0,0,1,46,174.82c31.53-36.56,85.79-36,129.47-46.27,17.34-4.08,55.48-8,67.07-23.5,14.34-19.14-25.82-27.94-40.68-32.33.78-1.48,1.6-2.93,2.48-4.36C220.55,69.42,273.4,73.94,272.83,99.74Z" transform="translate(-35.34 -7.49)"/><path class="e" d="M277.68,125.92a121,121,0,0,1-91.87,117.45c-39.34-14.86-84.71-47.69-27.95-75.65,36.87-18.16,93.34-20.23,119-55.64A121.75,121.75,0,0,1,277.68,125.92Z" transform="translate(-35.34 -7.49)"/><path class="f" d="M207,28.45c-8.08-13.72-24.58-15.3-26.15-15.42-2.55-.21-15.9-1-26.14,9C145.56,31,145,42.5,144.85,46c-.31,9,2.76,15.13,13.72,34.71,7.69,13.76,14.31,25.29,19.29,33.86C182,107.67,188.1,97.48,195.43,85c2.12-3.61,3.95-6.74,5.53-9.51.32-.55.62-1.09.92-1.62,1.37-2.44,2.53-4.59,3.52-6.56q.51-1,1-2a41.28,41.28,0,0,0,4.07-13.76C211.08,46,212.1,37.12,207,28.45Z" transform="translate(-35.34 -7.49)"/><path class="a" d="M186.45,63.1c-.2.1-.41.21-.62.3l-.16.08-.38.16-.38.16a5.2,5.2,0,0,1-.55.21,2,2,0,0,1-.34.12c-.23.09-.48.16-.72.24l-.83.22a2.46,2.46,0,0,1-.39.09l-.44.1-.41.08h0c-.26,0-.52.09-.79.12h0L180,65l-.3,0-.77.05c-.33,0-.67,0-1,0a18.78,18.78,0,1,1,18.77-18.77c0,.2,0,.39,0,.58a.34.34,0,0,1,0,.1,2.81,2.81,0,0,1,0,.29c0,.21,0,.42,0,.62s0,.2,0,.3a20,20,0,0,1-.36,2.21l-.09.37c-.08.36-.18.7-.29,1.06,0,.16-.1.33-.16.49l-.15.44c0,.14-.1.28-.16.43a.2.2,0,0,1,0,.08c-.07.19-.15.37-.23.55s-.17.39-.26.57c0,0,0,0,0,.05l-.17.34-.25.47-.22.4c-.09.16-.19.32-.29.48a18.41,18.41,0,0,1-1.51,2.11c-.09.12-.19.23-.29.34a3.17,3.17,0,0,1-.3.34c-.2.22-.4.44-.61.64s-.44.44-.67.65l-.33.28-.34.3-.28.22-.43.33h0c-.2.16-.41.3-.62.45l-.17.11-.26.17-.21.13A15.55,15.55,0,0,1,186.45,63.1Z" transform="translate(-35.34 -7.49)"/><path class="a" d="M272.16,209.76" transform="translate(-35.34 -7.49)"/></svg>